<?xml version="1.0" encoding="UTF-8"?>
<svg version="1.1" xmlns="http://www.w3.org/2000/svg" width="512" height="512">
<path d="M0 0 C1.51207031 1.2065625 1.51207031 1.2065625 3.0546875 2.4375 C22.60892987 18.34547434 38.57799982 37.04013002 51 59 C51.38075684 59.65806641 51.76151367 60.31613281 52.15380859 60.99414062 C79.01988269 107.76770962 84.4443817 165.10981274 71 217 C62.21649878 248.10841841 48.36812702 275.67987571 27 300 C26.22140625 300.9075 25.4428125 301.815 24.640625 302.75 C22.47846785 305.22103674 20.25961818 307.61765496 18 310 C17.47889648 310.55365234 16.95779297 311.10730469 16.42089844 311.67773438 C3.81054162 324.98827365 -9.98978656 335.99066843 -26 345 C-26.73250977 345.41604492 -27.46501953 345.83208984 -28.21972656 346.26074219 C-78.06200045 374.27811104 -134.9195449 380.9955523 -190 366 C-215.05340503 358.82456905 -237.92335815 347.23875029 -259 332 C-259.97380615 331.29979736 -259.97380615 331.29979736 -260.96728516 330.58544922 C-269.16858535 324.63278512 -276.69676042 318.01311089 -284 311 C-284.5561499 310.46938965 -285.1122998 309.9387793 -285.68530273 309.39208984 C-289.98027811 305.21252307 -293.71194282 300.78557176 -297.3125 296 C-297.87445068 295.25508301 -298.43640137 294.51016602 -299.01538086 293.74267578 C-300.69009793 291.50448694 -302.34943352 289.25604555 -304 287 C-304.45310547 286.38092773 -304.90621094 285.76185547 -305.37304688 285.12402344 C-338.01383667 239.8845929 -349.98780349 182.39226351 -341.35717773 127.56713867 C-332.71569403 76.47031949 -306.13493763 29.98112676 -265 -2 C-264.04222656 -2.75152344 -263.08445312 -3.50304687 -262.09765625 -4.27734375 C-184.14524034 -64.20134284 -76.09678504 -61.04700304 0 0 Z " fill="#020202" transform="translate(380,86)"/>
<path d="M0 0 C1.51207031 1.2065625 1.51207031 1.2065625 3.0546875 2.4375 C22.60892987 18.34547434 38.57799982 37.04013002 51 59 C51.38075684 59.65806641 51.76151367 60.31613281 52.15380859 60.99414062 C79.01988269 107.76770962 84.4443817 165.10981274 71 217 C62.21649878 248.10841841 48.36812702 275.67987571 27 300 C26.22140625 300.9075 25.4428125 301.815 24.640625 302.75 C22.47846785 305.22103674 20.25961818 307.61765496 18 310 C17.47889648 310.55365234 16.95779297 311.10730469 16.42089844 311.67773438 C3.81054162 324.98827365 -9.98978656 335.99066843 -26 345 C-26.73250977 345.41604492 -27.46501953 345.83208984 -28.21972656 346.26074219 C-78.06200045 374.27811104 -134.9195449 380.9955523 -190 366 C-215.05340503 358.82456905 -237.92335815 347.23875029 -259 332 C-259.97380615 331.29979736 -259.97380615 331.29979736 -260.96728516 330.58544922 C-269.16858535 324.63278512 -276.69676042 318.01311089 -284 311 C-284.5561499 310.46938965 -285.1122998 309.9387793 -285.68530273 309.39208984 C-289.98027811 305.21252307 -293.71194282 300.78557176 -297.3125 296 C-297.87445068 295.25508301 -298.43640137 294.51016602 -299.01538086 293.74267578 C-300.69009793 291.50448694 -302.34943352 289.25604555 -304 287 C-304.45310547 286.38092773 -304.90621094 285.76185547 -305.37304688 285.12402344 C-338.01383667 239.8845929 -349.98780349 182.39226351 -341.35717773 127.56713867 C-332.71569403 76.47031949 -306.13493763 29.98112676 -265 -2 C-264.04222656 -2.75152344 -263.08445312 -3.50304687 -262.09765625 -4.27734375 C-184.14524034 -64.20134284 -76.09678504 -61.04700304 0 0 Z M-167.82202148 -15.53393555 C-170.26272646 -14.93559211 -172.71311166 -14.44503566 -175.1796875 -13.96484375 C-193.85293082 -10.29083065 -211.92232362 -2.06358297 -228 8 C-229.55074219 8.97066406 -229.55074219 8.97066406 -231.1328125 9.9609375 C-245.52602493 19.2741926 -259.02971146 30.79372909 -270 44 C-270.86496094 44.98871094 -271.72992188 45.97742188 -272.62109375 46.99609375 C-278.42071533 53.64298515 -283.62384809 60.30629016 -288 68 C-288.3801123 68.66741211 -288.76022461 69.33482422 -289.15185547 70.02246094 C-297.68313184 85.16622602 -303.62872776 100.59811599 -308.3125 117.3125 C-308.67649902 118.59991089 -308.67649902 118.59991089 -309.04785156 119.91333008 C-312.80178655 133.91359612 -313.40596475 147.66209075 -313.375 162.0625 C-313.37478851 162.97008057 -313.37457703 163.87766113 -313.37435913 164.81274414 C-313.34304686 178.26960144 -312.66143875 190.98188051 -309 204 C-308.60995681 205.50892858 -308.22063766 207.0180445 -307.83203125 208.52734375 C-304.63483554 220.4726946 -299.88539635 231.65313896 -294.17578125 242.62109375 C-293.25380431 244.48648895 -292.42310581 246.39703722 -291.62890625 248.3203125 C-285.97096071 261.63764155 -276.37243706 273.15029109 -267 284 C-266.51885742 284.55703613 -266.03771484 285.11407227 -265.54199219 285.68798828 C-237.32311417 318.02994694 -195.79193337 339.36558097 -153 344 C-147.310365 344.3243473 -141.61546716 344.33012164 -135.91821289 344.31567383 C-133.33371248 344.31252584 -130.75037461 344.33601777 -128.16601562 344.36132812 C-113.42962637 344.41783275 -99.30397653 342.50391364 -85.0625 338.625 C-84.27093506 338.41294922 -83.47937012 338.20089844 -82.66381836 337.98242188 C-77.37201467 336.51184378 -72.44093927 334.68011382 -67.51171875 332.234375 C-64.84482571 330.92374016 -62.13921664 329.83927295 -59.375 328.75 C-40.67557199 320.94649193 -24.61111826 310.02958122 -10 296 C-9.10925781 295.16082031 -8.21851563 294.32164062 -7.30078125 293.45703125 C-0.42244865 286.80893572 5.41074717 279.74124029 11 272 C11.39461426 271.45553223 11.78922852 270.91106445 12.19580078 270.35009766 C19.06546791 260.80968086 25.68387295 250.98650523 30 240 C30.36609375 239.154375 30.7321875 238.30875 31.109375 237.4375 C33.88646814 230.99190111 36.25636692 224.49338838 38.38818359 217.8125 C39.90351305 213.09648695 39.90351305 213.09648695 41 212 C41.53821792 209.26368199 41.96478036 206.5157942 42.40234375 203.76171875 C43 201 43 201 43.96850586 199.20263672 C48.83103684 188.81926286 47.40383867 174.29471295 47.375 163.0625 C47.37345917 162.15481873 47.37191833 161.24713745 47.37033081 160.31195068 C47.24973149 130.44866627 40.77455675 102.22178563 26 76 C25.43796875 74.96488281 24.8759375 73.92976563 24.296875 72.86328125 C8.03926435 43.80470147 -17.43779167 17.004009 -48 3 C-48.66 3 -49.32 3 -50 3 C-50 2.34 -50 1.68 -50 1 C-50.78697266 0.68869141 -50.78697266 0.68869141 -51.58984375 0.37109375 C-52.36457031 0.06300781 -53.13929688 -0.24507812 -53.9375 -0.5625 C-54.85660156 -0.92730469 -55.77570313 -1.29210937 -56.72265625 -1.66796875 C-59.07789371 -2.62522259 -61.41353582 -3.60398432 -63.74609375 -4.61328125 C-96.32804559 -18.60903267 -132.99205763 -24.4995396 -167.82202148 -15.53393555 Z " fill="#D5D5D5" transform="translate(380,86)"/>
<path d="M0 0 C9.9 0 19.8 0 30 0 C30 65.67 30 131.34 30 199 C20.1 199 10.2 199 0 199 C0 133.33 0 67.66 0 0 Z " fill="#CDCDCC" transform="translate(326,173)"/>
<path d="M0 0 C9.57 0 19.14 0 29 0 C30.73445134 1.73445134 30.12239323 3.97340414 30.12908131 6.28518492 C30.12471205 7.43059088 30.12471205 7.43059088 30.12025452 8.59913635 C30.12110894 9.40445059 30.12196337 10.20976483 30.12284368 11.03948253 C30.12450095 13.75884703 30.11897311 16.47815088 30.11352539 19.19750977 C30.11324355 21.13851927 30.1134012 23.07952889 30.1139679 25.02053833 C30.11425598 30.30750984 30.10835756 35.59445888 30.10139394 40.88142514 C30.09516214 46.40011053 30.09455674 51.91879638 30.09336853 57.43748474 C30.0902547 67.89579158 30.08204061 78.35408802 30.07201904 88.81239027 C30.06085951 100.71545041 30.05534786 112.61851103 30.05032361 124.52157509 C30.03985804 149.01438936 30.02205726 173.50719366 30 198 C20.1 198 10.2 198 0 198 C0 132.66 0 67.32 0 0 Z " fill="#D3D3D2" transform="translate(139,173)"/>
<path d="M0 0 C47.85 0 95.7 0 145 0 C145 9.57 145 19.14 145 29 C97.15 29 49.3 29 0 29 C0 19.43 0 9.86 0 0 Z " fill="#CCCCCC" transform="translate(175,258)"/>
<path d="M0 0 C0.66 1.32 1.32 2.64 2 4 C-11.22398092 17.90797993 -25.22086569 29.55797818 -42 39 C-42.73250977 39.41604492 -43.46501953 39.83208984 -44.21972656 40.26074219 C-94.06200045 68.27811104 -150.9195449 74.9955523 -206 60 C-234.25025682 51.90897337 -261.64467977 38.24586405 -284 19 C-285.35439668 16.29120665 -285.06501451 13.99066732 -285 11 C-283.0625 11.75 -283.0625 11.75 -281 13 C-280.87109375 13.62003906 -280.7421875 14.24007813 -280.609375 14.87890625 C-279.80069193 17.69374541 -278.53775011 18.49130836 -276.1875 20.1875 C-275.50042969 20.69667969 -274.81335938 21.20585937 -274.10546875 21.73046875 C-272.03761046 22.97732208 -270.35929578 23.55995157 -268 24 C-268 24.66 -268 25.32 -268 26 C-267.01 26 -266.02 26 -265 26 C-265 26.66 -265 27.32 -265 28 C-264.01 27.67 -263.02 27.34 -262 27 C-259.8125 27.9375 -259.8125 27.9375 -258 29 C-257.54109375 28.2059375 -257.0821875 27.411875 -256.609375 26.59375 C-255.68898437 25.06234375 -255.68898437 25.06234375 -254.75 23.5 C-254.14671875 22.4790625 -253.5434375 21.458125 -252.921875 20.40625 C-252.28765625 19.6121875 -251.6534375 18.818125 -251 18 C-247 18 -247 18 -245 19 C-245 19.66 -245 20.32 -245 21 C-244.21625 21.12375 -243.4325 21.2475 -242.625 21.375 C-240 22 -240 22 -238 24 C-237 26.125 -237 26.125 -237 29 C-238.74890534 31.88275223 -240.80982731 34.44162437 -243 37 C-244.65 36.34 -246.3 35.68 -248 35 C-248.66 35.66 -249.32 36.32 -250 37 C-248.5459375 37.680625 -248.5459375 37.680625 -247.0625 38.375 C-244 40 -244 40 -243 42 C-240.67843403 42.40729228 -238.3431213 42.74438677 -236 43 C-236.33 42.01 -236.66 41.02 -237 40 C-236.00390625 37.30078125 -236.00390625 37.30078125 -234.5625 34.3125 C-234.08941406 33.31863281 -233.61632812 32.32476562 -233.12890625 31.30078125 C-232.75636719 30.54152344 -232.38382813 29.78226562 -232 29 C-226.33323911 29.98896351 -220.88800284 31.57256777 -217.25 36.25 C-216.8688162 40.44302185 -218.62047137 43.59960104 -221 47 C-221.99 47.66 -222.98 48.32 -224 49 C-222.15274948 49.69159401 -222.15274948 49.69159401 -220 50 C-219.01 49.34 -218.02 48.68 -217 48 C-216.95875 48.61875 -216.9175 49.2375 -216.875 49.875 C-216.58625 50.57625 -216.2975 51.2775 -216 52 C-213.00384054 53.3045656 -213.00384054 53.3045656 -210 54 C-210 53.34 -210 52.68 -210 52 C-210.66 52 -211.32 52 -212 52 C-214 49 -214 49 -213.8125 46 C-212.59569378 41.50717703 -212.59569378 41.50717703 -210 40 C-205.70578201 39.58443052 -203.09818339 39.54640251 -199.125 41.1875 C-196.57608036 43.36157852 -195.70205375 44.72374917 -195 48 C-195.98047754 51.83277583 -196.63883517 52.75922345 -200 55 C-200.99 55 -201.98 55 -203 55 C-203 55.66 -203 56.32 -203 57 C-197.72 58.32 -192.44 59.64 -187 61 C-187.495 58.916875 -187.99 56.83375 -188.5 54.6875 C-190 48.375 -190 48.375 -190 45 C-187.69 45.33 -185.38 45.66 -183 46 C-182.505 48.475 -182.505 48.475 -182 51 C-181.34 51 -180.68 51 -180 51 C-179.34 49.68 -178.68 48.36 -178 47 C-175.69 47.33 -173.38 47.66 -171 48 C-173.2905953 52.02828828 -175.61578357 56.02630594 -178 60 C-178.495 60.99 -178.495 60.99 -179 62 C-175.04 62.33 -171.08 62.66 -167 63 C-167.165 62.071875 -167.33 61.14375 -167.5 60.1875 C-168 57 -168 57 -168 54 C-165.31955351 50.507297 -163.91578679 49.13082668 -159.5 48.5 C-155.73188787 49.03830173 -153.84782888 49.47763728 -151 52 C-149.75 55.4375 -149.75 55.4375 -149 59 C-148.773125 59.78375 -148.54625 60.5675 -148.3125 61.375 C-148.1578125 62.179375 -148.1578125 62.179375 -148 63 C-148.33 63.33 -148.66 63.66 -149 64 C-145.37 64 -141.74 64 -138 64 C-138.66 63.01 -139.32 62.02 -140 61 C-140.125 57.8125 -140.125 57.8125 -140 55 C-140.99 55 -141.98 55 -143 55 C-143.33 53.35 -143.66 51.7 -144 50 C-143.01 50 -142.02 50 -141 50 C-141 48.68 -141 47.36 -141 46 C-138.125 45.375 -138.125 45.375 -135 45 C-134.34 45.66 -133.68 46.32 -133 47 C-133.33 47.66 -133.66 48.32 -134 49 C-132.35 49 -130.7 49 -129 49 C-128.67 50.65 -128.34 52.3 -128 54 C-129.65 54.66 -131.3 55.32 -133 56 C-132.34 56.66 -131.68 57.32 -131 58 C-131 57.34 -131 56.68 -131 56 C-130.34 56 -129.68 56 -129 56 C-128.01 58.475 -128.01 58.475 -127 61 C-127.99 61.99 -127.99 61.99 -129 63 C-128.01 63.33 -127.02 63.66 -126 64 C-126 63.34 -126 62.68 -126 62 C-123.03 62 -120.06 62 -117 62 C-117 61.34 -117 60.68 -117 60 C-118.32 59.67 -119.64 59.34 -121 59 C-122.45283019 51.73584906 -122.45283019 51.73584906 -120.5 48.5625 C-117.21717338 46.51073336 -114.86556385 46.06781691 -111 46 C-108.1875 47.0625 -108.1875 47.0625 -106 49 C-104.5925541 52.2170192 -104 54.4905346 -104 58 C-99.82131523 57.32601858 -95.96775368 56.01892524 -91.98828125 54.62109375 C-90 54 -90 54 -88 54 C-86.66216607 53.68521554 -85.32796291 53.35412344 -84 53 C-84.433125 52.02417969 -84.86625 51.04835938 -85.3125 50.04296875 C-85.8752871 48.7579382 -86.43777134 47.47277498 -87 46.1875 C-87.28617188 45.54490234 -87.57234375 44.90230469 -87.8671875 44.24023438 C-89.13711041 41.32243531 -90 39.21734286 -90 36 C-88.02 35.34 -86.04 34.68 -84 34 C-83.01 36.475 -83.01 36.475 -82 39 C-79.525 38.505 -79.525 38.505 -77 38 C-77.66 35.69 -78.32 33.38 -79 31 C-76.69 30.67 -74.38 30.34 -72 30 C-71.18501438 31.6029053 -70.37310073 33.20737278 -69.5625 34.8125 C-68.88380859 36.15248047 -68.88380859 36.15248047 -68.19140625 37.51953125 C-67 40 -67 40 -66 43 C-63.36 43 -60.72 43 -58 43 C-57.67 42.34 -57.34 41.68 -57 41 C-57.5775 40.79375 -58.155 40.5875 -58.75 40.375 C-61.90045599 38.44972134 -63.26039731 36.22148646 -65 33 C-64.75 30.625 -64.75 30.625 -64 29 C-59.59885603 29.50298788 -57.28804981 31.08772731 -54 34 C-54.58803797 30.97580475 -55.22678118 27.98241547 -56 25 C-54.35 24.67 -52.7 24.34 -51 24 C-50.2575 24.9075 -49.515 25.815 -48.75 26.75 C-46.62325416 29.3069423 -44.39770184 31.69110193 -42 34 C-41.01 33.01 -41.01 33.01 -40 32 C-39.01 32 -38.02 32 -37 32 C-37 31.34 -37 30.68 -37 30 C-37.99 29.67 -38.98 29.34 -40 29 C-41.66964001 27.09389975 -43.18528257 25.21681127 -44.6875 23.1875 C-45.10322266 22.65318359 -45.51894531 22.11886719 -45.94726562 21.56835938 C-48.36721844 18.33778197 -49 17.17650955 -49 13 C-45.66666667 13 -42.33333333 13 -39 13 C-38.01 12.34 -37.02 11.68 -36 11 C-32.48394503 11.14961936 -30.5046211 11.64145343 -27.625 13.6875 C-25.56116488 16.62449613 -25.68055655 18.48612204 -26 22 C-18.55827626 17.72100885 -11.89890027 12.22661695 -6 6 C-4.89847803 4.89319495 -3.7942315 3.78909586 -2.6875 2.6875 C-1.800625 1.800625 -0.91375 0.91375 0 0 Z " fill="#89898B" transform="translate(396,392)"/>
<path d="M0 0 C9.57 0 19.14 0 29 0 C29 29.7 29 59.4 29 90 C19.43 90 9.86 90 0 90 C0 60.3 0 30.6 0 0 Z " fill="#A3A2A3" transform="translate(232,311)"/>
<path d="M0 0 C9.57 0 19.14 0 29 0 C30.7082941 1.7082941 30.11971926 3.86004377 30.12442017 6.13786316 C30.12082489 6.87297623 30.11722961 7.60808929 30.11352539 8.36547852 C30.11367142 9.13615662 30.11381744 9.90683472 30.1139679 10.7008667 C30.1132686 13.26024139 30.10547545 15.8195442 30.09765625 18.37890625 C30.09579213 20.14867615 30.0943682 21.91844656 30.09336853 23.68821716 C30.08954288 28.35551366 30.0797122 33.02277923 30.06866455 37.69006348 C30.05845144 42.44897035 30.05387113 47.20788221 30.04882812 51.96679688 C30.03808997 61.31121371 30.0204928 70.65559945 30 80 C20.1 80 10.2 80 0 80 C0 53.6 0 27.2 0 0 Z " fill="#E9E9E8" transform="translate(232,173)"/>
<path d="M0 0 C6.66621951 3.41034759 12.67581202 8.06724621 15.1875 15.3125 C16.02528261 22.98690487 16.88238461 32.7426143 12.1875 39.3125 C7.07431218 44.8166963 1.51461781 49.80047446 -6.1796875 50.7109375 C-14.48651125 50.65543534 -20.84110583 50.54503014 -27.5 45.125 C-34.79053867 36.25812864 -36.36907548 29.74486126 -35.8125 18.3125 C-34.81805758 12.24640125 -32.45474986 8.24539253 -27.8125 4.3125 C-18.85036669 -1.62736646 -10.23141178 -4.15758037 0 0 Z " fill="#F8F8F8" transform="translate(256.8125,93.6875)"/>
<path d="M0 0 C0.99 1.98 0.99 1.98 2 4 C-14.34781141 21.19338787 -32.07112528 33.82233593 -53 44.9375 C-53.90903076 45.4229126 -54.81806152 45.9083252 -55.75463867 46.40844727 C-57.05171753 47.08605103 -57.05171753 47.08605103 -58.375 47.77734375 C-59.53128906 48.38437134 -59.53128906 48.38437134 -60.7109375 49.00366211 C-64.52713655 50.66470182 -67.00489673 51.33170109 -71 50 C-72.66967972 50.6590841 -74.33607955 51.32650839 -76 52 C-78.8125 52.125 -78.8125 52.125 -81 52 C-80.01 51.505 -80.01 51.505 -79 51 C-79.99 47.535 -79.99 47.535 -81 44 C-77.91190305 42.23537317 -76.76687864 42 -73 42 C-72.34 43.32 -71.68 44.64 -71 46 C-69.515 45.505 -69.515 45.505 -68 45 C-69.65 40.71 -71.3 36.42 -73 32 C-74.32 32 -75.64 32 -77 32 C-76.67 32.598125 -76.34 33.19625 -76 33.8125 C-75 36 -75 36 -75 39 C-76.32 38.67 -77.64 38.34 -79 38 C-78.34 38 -77.68 38 -77 38 C-77.99 34.535 -77.99 34.535 -79 31 C-75.535 30.505 -75.535 30.505 -72 30 C-71.18501438 31.6029053 -70.37310073 33.20737278 -69.5625 34.8125 C-69.11003906 35.70582031 -68.65757812 36.59914063 -68.19140625 37.51953125 C-67 40 -67 40 -66 43 C-63.36 43 -60.72 43 -58 43 C-57.67 42.34 -57.34 41.68 -57 41 C-57.5775 40.79375 -58.155 40.5875 -58.75 40.375 C-61.90045599 38.44972134 -63.26039731 36.22148646 -65 33 C-64.75 30.625 -64.75 30.625 -64 29 C-59.59885603 29.50298788 -57.28804981 31.08772731 -54 34 C-54.58803797 30.97580475 -55.22678118 27.98241547 -56 25 C-54.35 24.67 -52.7 24.34 -51 24 C-50.2575 24.9075 -49.515 25.815 -48.75 26.75 C-46.62325416 29.3069423 -44.39770184 31.69110193 -42 34 C-41.34 33.34 -40.68 32.68 -40 32 C-39.01 32 -38.02 32 -37 32 C-37 31.34 -37 30.68 -37 30 C-37.99 29.67 -38.98 29.34 -40 29 C-41.66964001 27.09389975 -43.18528257 25.21681127 -44.6875 23.1875 C-45.10322266 22.65318359 -45.51894531 22.11886719 -45.94726562 21.56835938 C-48.36721844 18.33778197 -49 17.17650955 -49 13 C-45.66666667 13 -42.33333333 13 -39 13 C-38.01 12.34 -37.02 11.68 -36 11 C-32.48394503 11.14961936 -30.5046211 11.64145343 -27.625 13.6875 C-25.56116488 16.62449613 -25.68055655 18.48612204 -26 22 C-18.55827626 17.72100885 -11.89890027 12.22661695 -6 6 C-4.89847803 4.89319495 -3.7942315 3.78909586 -2.6875 2.6875 C-1.3571875 1.3571875 -1.3571875 1.3571875 0 0 Z " fill="#B0AEB1" transform="translate(396,392)"/>
<path d="M0 0 C1.9375 0.75 1.9375 0.75 4 2 C4.12890625 2.62003906 4.2578125 3.24007813 4.390625 3.87890625 C5.19930807 6.69374541 6.46224989 7.49130836 8.8125 9.1875 C9.84310547 9.95126953 9.84310547 9.95126953 10.89453125 10.73046875 C12.96238954 11.97732208 14.64070422 12.55995157 17 13 C17 13.66 17 14.32 17 15 C17.99 15 18.98 15 20 15 C20 15.66 20 16.32 20 17 C20.99 16.67 21.98 16.34 23 16 C25.1875 16.9375 25.1875 16.9375 27 18 C27.45890625 17.2059375 27.9178125 16.411875 28.390625 15.59375 C29.00421875 14.5728125 29.6178125 13.551875 30.25 12.5 C30.85328125 11.4790625 31.4565625 10.458125 32.078125 9.40625 C32.71234375 8.6121875 33.3465625 7.818125 34 7 C38 7 38 7 40 8 C40 8.66 40 9.32 40 10 C40.78375 10.12375 41.5675 10.2475 42.375 10.375 C45 11 45 11 47 13 C48 15.125 48 15.125 48 18 C46.25109466 20.88275223 44.19017269 23.44162437 42 26 C39.525 25.01 39.525 25.01 37 24 C36.34 24.66 35.68 25.32 35 26 C36.4540625 26.680625 36.4540625 26.680625 37.9375 27.375 C41 29 41 29 42 31 C44.32156597 31.40729228 46.6568787 31.74438677 49 32 C48.505 30.515 48.505 30.515 48 29 C48.99609375 26.30078125 48.99609375 26.30078125 50.4375 23.3125 C50.91058594 22.31863281 51.38367188 21.32476562 51.87109375 20.30078125 C52.24363281 19.54152344 52.61617187 18.78226562 53 18 C58.66676089 18.98896351 64.11199716 20.57256777 67.75 25.25 C68.1311838 29.44302185 66.37952863 32.59960104 64 36 C63.01 36.66 62.02 37.32 61 38 C62.84725052 38.69159401 62.84725052 38.69159401 65 39 C65.99 38.34 66.98 37.68 68 37 C68.061875 37.61875 68.12375 38.2375 68.1875 38.875 C68.80368419 41.21292245 68.80368419 41.21292245 71.1875 42.0625 C72.115625 42.371875 73.04375 42.68125 74 43 C76.00751815 43.98482022 78.00934459 44.98152514 80 46 C80 46.33 80 46.66 80 47 C74.76658021 47.24216338 70.50317889 46.53826607 65.625 44.75 C64.90731445 44.48896484 64.18962891 44.22792969 63.45019531 43.95898438 C8.63053083 23.26106166 8.63053083 23.26106166 0 6 C-0.039992 4.00039988 -0.04346799 1.99952758 0 0 Z " fill="#A2A0A3" transform="translate(111,403)"/>
<path d="M0 0 C1.20970459 0.00523682 2.41940918 0.01047363 3.66577148 0.01586914 C4.97094727 0.0190918 6.27612305 0.02231445 7.62084961 0.02563477 C9.00952213 0.03399138 10.39819401 0.04245634 11.78686523 0.05102539 C13.17944179 0.05603873 14.57202005 0.06060193 15.96459961 0.06469727 C19.38453974 0.07653097 22.80445773 0.09446708 26.22436523 0.11352539 C26.22436523 8.69352539 26.22436523 17.27352539 26.22436523 26.11352539 C16.32436523 26.11352539 6.42436523 26.11352539 -3.77563477 26.11352539 C-3.79625977 22.00915039 -3.81688477 17.90477539 -3.83813477 13.67602539 C-3.84723877 12.37995361 -3.85634277 11.08388184 -3.86572266 9.74853516 C-3.86822021 8.735896 -3.87071777 7.72325684 -3.87329102 6.67993164 C-3.87852783 5.63780518 -3.88376465 4.59567871 -3.88916016 3.52197266 C-3.7258134 0.05656255 -3.50002666 0.14315352 0 0 Z " fill="#EFF0EF" transform="translate(329.775634765625,121.886474609375)"/>
<path d="M0 0 C9.57 0 19.14 0 29 0 C29 8.58 29 17.16 29 26 C19.43 26 9.86 26 0 26 C0 17.42 0 8.84 0 0 Z " fill="#F2F2F2" transform="translate(139,122)"/>
<path d="M0 0 C0.99 0 1.98 0 3 0 C3 0.66 3 1.32 3 2 C2.34 2 1.68 2 1 2 C1 4.31 1 6.62 1 9 C1.66 8.34 2.32 7.68 3 7 C3 7.99 3 8.98 3 10 C3.66 10 4.32 10 5 10 C5.32613281 10.88042969 5.65226562 11.76085937 5.98828125 12.66796875 C6.64376953 14.41013672 6.64376953 14.41013672 7.3125 16.1875 C7.74175781 17.33605469 8.17101563 18.48460937 8.61328125 19.66796875 C9.86802502 22.68288829 11.28622473 25.23225294 13 28 C14.25140778 30.38758959 15.4812839 32.77758599 16.6875 35.1875 C17.00783203 35.81591797 17.32816406 36.44433594 17.65820312 37.09179688 C20 41.76041111 20 41.76041111 20 44 C20.66 44.33 21.32 44.66 22 45 C22.8792285 46.28220823 23.70687862 47.6003167 24.5 48.9375 C25.89882073 51.28734824 27.05533339 53.05533339 29 55 C29.91356811 56.36328121 30.80691294 57.74018637 31.6875 59.125 C35.19301921 64.43899 39.00337373 69.75389987 44.13671875 73.6015625 C47.1243332 75.84383917 47.84347835 78.53043505 49 82 C49.66 82 50.32 82 51 82 C51 82.66 51 83.32 51 84 C51.66 84 52.32 84 53 84 C57 88.47058824 57 88.47058824 57 91 C57.639375 91.226875 58.27875 91.45375 58.9375 91.6875 C61 93 61 93 61.75 95.625 C61.8325 96.40875 61.915 97.1925 62 98 C58.07026269 96.3774593 55.24297766 93.6816207 52.1875 90.8125 C51.4440332 90.12704102 51.4440332 90.12704102 50.68554688 89.42773438 C49.10993497 87.96568009 47.5523026 86.4867719 46 85 C45.43079834 84.45778809 44.86159668 83.91557617 44.27514648 83.35693359 C39.9941216 79.19004572 36.27673416 74.77052212 32.6875 70 C32.12554932 69.25508301 31.56359863 68.51016602 30.98461914 67.74267578 C29.30990207 65.50448694 27.65056648 63.25604555 26 61 C25.3203418 60.0713916 25.3203418 60.0713916 24.62695312 59.12402344 C14.35562428 44.88818323 6.09991372 29.00803566 -0.3125 12.6875 C-0.60858154 11.9349292 -0.90466309 11.1823584 -1.2097168 10.40698242 C-1.87449289 8.62861777 -2.44721389 6.81629723 -3 5 C-2.67 4.34 -2.34 3.68 -2 3 C-1.34 3.33 -0.68 3.66 0 4 C0 2.68 0 1.36 0 0 Z " fill="#BEBABC" transform="translate(50,312)"/>
<path d="M0 0 C0.33 0 0.66 0 1 0 C1 65.01 1 130.02 1 197 C-8.9 197 -18.8 197 -29 197 C-29 183.47 -29 169.94 -29 156 C-28.67 156 -28.34 156 -28 156 C-27.814375 157.7015625 -27.814375 157.7015625 -27.625 159.4375 C-27.41875 160.613125 -27.2125 161.78875 -27 163 C-26.34 163.33 -25.68 163.66 -25 164 C-25.6383187 174.33533038 -26.30232659 184.66849591 -27 195 C-26.01 194.835 -25.02 194.67 -24 194.5 C-17.05119475 193.60622251 -9.99117499 193.92364008 -3 194 C-3.01160156 193.35675781 -3.02320313 192.71351563 -3.03515625 192.05078125 C-3.10901995 184.65385931 -2.65578395 177.36585905 -2 170 C-1.67 170 -1.34 170 -1 170 C-0.67 113.9 -0.34 57.8 0 0 Z " fill="#898B8D" transform="translate(168,174)"/>
<path d="M0 0 C0.66 0.33 1.32 0.66 2 1 C1.67 2.0725 1.34 3.145 1 4.25 C-0.1717751 7.99731601 -0.1717751 7.99731601 0 12 C-0.43062414 13.86603793 -0.91370429 15.72044333 -1.4375 17.5625 C-1.70433594 18.51253906 -1.97117187 19.46257812 -2.24609375 20.44140625 C-2.7952422 22.3050966 -3.38559738 24.15679215 -4 26 C-4 27.32 -4 28.64 -4 30 C-4.19322831 31.49700552 -4.41446322 32.99053524 -4.65625 34.48046875 C-8.11534176 57.39951622 -8.77461923 81.0070546 -4.65625 103.8828125 C-3.98448486 107.64924571 -3.8783715 111.17883791 -4 115 C-4.99 114.67 -5.98 114.34 -7 114 C-13.70746497 75.70359125 -12.60666588 40.60567844 -3 3 C-2.01 3 -1.02 3 0 3 C0 2.01 0 1.02 0 0 Z " fill="#E4DFE3" transform="translate(48,182)"/>
<path d="M0 0 C9.24 0 18.48 0 28 0 C28 29.04 28 58.08 28 88 C27.67 88 27.34 88 27 88 C25.6671586 71.25758867 25.88214477 54.48649548 25.93133545 37.7053833 C25.94171194 33.78276108 25.94616324 29.8601321 25.95117188 25.9375 C25.96177827 18.29164648 25.9793115 10.64583411 26 3 C18.41 3.33 10.82 3.66 3 4 C3.00902344 6.53429687 3.01804688 9.06859375 3.02734375 11.6796875 C3.03874514 21.26460274 2.86136501 30.84161296 2.62768555 40.42333984 C2.56238398 43.12980842 2.50270832 45.83636385 2.44335938 48.54296875 C2.20023359 59.05072922 1.75416539 69.51571306 1 80 C0.67 80 0.34 80 0 80 C0 53.6 0 27.2 0 0 Z " fill="#D3D3D4" transform="translate(233,311)"/>
<path d="M0 0 C46.86 0 93.72 0 142 0 C142 8.25 142 16.5 142 25 C140.18752079 21.37504158 139.75135958 20.4048294 139.8046875 16.671875 C139.81435547 15.47304688 139.81435547 15.47304688 139.82421875 14.25 C139.84935547 13.0125 139.84935547 13.0125 139.875 11.75 C139.88402344 10.90953125 139.89304687 10.0690625 139.90234375 9.203125 C139.92584183 7.13529396 139.96171092 5.06761005 140 3 C138.60799377 3.00333092 138.60799377 3.00333092 137.18786621 3.00672913 C125.29192096 3.03425069 113.39597211 3.05185394 101.5 3.0625 C100.55024796 3.06335602 99.60049591 3.06421204 98.6219635 3.06509399 C65.73593874 3.09127255 32.87734395 2.79263153 0 2 C0 1.34 0 0.68 0 0 Z " fill="#EFEFEF" transform="translate(177,259)"/>
<path d="M0 0 C1.32 0.66 2.64 1.32 4 2 C2.15434096 8.06846347 -0.1011921 13.61507284 -3.125 19.1875 C-3.52041992 19.920896 -3.91583984 20.65429199 -4.32324219 21.40991211 C-13.51551824 38.23629687 -25.03134302 52.89511627 -38 67 C-38.66 66.67 -39.32 66.34 -40 66 C-39.32863279 61.46827136 -36.57582468 58.81931946 -33.66015625 55.453125 C-31.53667907 52.96650245 -30.04528296 51.13584889 -29 48 C-28.01 47.505 -28.01 47.505 -27 47 C-26.34 46.01 -25.68 45.02 -25 44 C-24.2265625 42.9790625 -24.2265625 42.9790625 -23.4375 41.9375 C-21.95776051 40.06034213 -21.95776051 40.06034213 -21 38 C-20.525625 37.566875 -20.05125 37.13375 -19.5625 36.6875 C-17.66331821 34.63638366 -16.9197001 32.61760798 -16 30 C-15.34 30 -14.68 30 -14 30 C-13.731875 29.29875 -13.46375 28.5975 -13.1875 27.875 C-11.93064459 24.8320869 -10.47236314 21.94472628 -9 19 C-7.97582682 16.62344369 -6.96102447 14.24390204 -5.96484375 11.85546875 C-5 10 -5 10 -3 9 C-2.09274566 6.88672575 -2.09274566 6.88672575 -1.375 4.4375 C-1.11460937 3.61121094 -0.85421875 2.78492188 -0.5859375 1.93359375 C-0.39257812 1.29550781 -0.19921875 0.65742188 0 0 Z " fill="#B9B4B8" transform="translate(437,328)"/>
<path d="M0 0 C-0.33 0.66 -0.66 1.32 -1 2 C0.65 2 2.3 2 4 2 C4.495 4.475 4.495 4.475 5 7 C3.35 7.66 1.7 8.32 0 9 C0.66 9.66 1.32 10.32 2 11 C2 10.34 2 9.68 2 9 C2.66 9 3.32 9 4 9 C4.66 10.65 5.32 12.3 6 14 C5.34 14.66 4.68 15.32 4 16 C4.99 16.33 5.98 16.66 7 17 C7 16.34 7 15.68 7 15 C8.32 15 9.64 15 11 15 C11 15.66 11 16.32 11 17 C12.42892578 16.7834375 12.42892578 16.7834375 13.88671875 16.5625 C15.14097656 16.376875 16.39523437 16.19125 17.6875 16 C18.92886719 15.814375 20.17023438 15.62875 21.44921875 15.4375 C24.35886371 15.07899589 27.07700022 14.91057744 30 15 C11.86873739 27.08750841 -25.61006403 21.376741 -46 19 C-46 18.67 -46 18.34 -46 18 C-32.47 18 -18.94 18 -5 18 C-5.66 16.68 -6.32 15.36 -7 14 C-7.125 10.75 -7.125 10.75 -7 8 C-7.99 8 -8.98 8 -10 8 C-10.495 5.525 -10.495 5.525 -11 3 C-10.01 3 -9.02 3 -8 3 C-8 1.68 -8 0.36 -8 -1 C-3.375 -2.25 -3.375 -2.25 0 0 Z " fill="#887E82" transform="translate(263,439)"/>
<path d="M0 0 C5.66676089 0.98896351 11.11199716 2.57256777 14.75 7.25 C15.13166073 11.44826808 13.54276341 14.68817191 11 18 C8.7421875 19.88671875 8.7421875 19.88671875 6 21 C2.88671875 20.19921875 2.88671875 20.19921875 -0.3125 18.6875 C-1.38113281 18.19636719 -2.44976562 17.70523437 -3.55078125 17.19921875 C-4.35902344 16.80347656 -5.16726562 16.40773438 -6 16 C-5.34 15.34 -4.68 14.68 -4 14 C-4.33 13.01 -4.66 12.02 -5 11 C-4.00390625 8.30078125 -4.00390625 8.30078125 -2.5625 5.3125 C-2.08941406 4.31863281 -1.61632812 3.32476562 -1.12890625 2.30078125 C-0.75636719 1.54152344 -0.38382813 0.78226562 0 0 Z " fill="#7A7B7E" transform="translate(164,421)"/>
<path d="M0 0 C9.57 0 19.14 0 29 0 C29 0.33 29 0.66 29 1 C19.76 1 10.52 1 1 1 C1.10796763 19.44545455 1.21995948 37.89087022 1.33933926 56.33625412 C1.39463851 64.90058785 1.4481151 73.46492575 1.49731445 82.02929688 C1.54019667 89.4932124 1.58648487 96.95709766 1.63687855 104.42096639 C1.66344694 108.37372078 1.6882992 112.32646929 1.70907402 116.27925873 C1.72867812 119.99906354 1.75283315 123.71881092 1.78049088 127.4385643 C1.79430268 129.4559612 1.80327811 131.4733894 1.81211853 133.49081421 C1.82190735 134.69112274 1.83169617 135.89143127 1.84178162 137.12811279 C1.84823417 138.17158245 1.85468672 139.21505211 1.8613348 140.29014206 C1.98461497 142.69933873 2.36525779 144.68851228 3 147 C3.06557653 149.78700236 2.99874884 152.55692789 2.9375 155.34375 C2.99425521 157.7558465 3.4100302 159.68226149 4 162 C3.67 162.33 3.34 162.66 3 163 C2.76924918 164.34747084 2.58846937 165.70377565 2.4375 167.0625 C2.2209375 169.0115625 2.2209375 169.0115625 2 171 C1.67 171 1.34 171 1 171 C0.13942104 160.98223892 -0.1396549 151.0483492 -0.11352539 140.99853516 C-0.11324251 139.44969179 -0.11340322 137.90084829 -0.1139679 136.352005 C-0.11425194 132.19386369 -0.1084194 128.03575189 -0.10139394 123.87761736 C-0.09509434 119.51479783 -0.09455142 115.15197743 -0.09336853 110.78915405 C-0.09027454 102.54831826 -0.08208748 94.30749591 -0.07201904 86.06666601 C-0.06079754 76.67595355 -0.05533231 67.28524041 -0.05032361 57.89452291 C-0.03990302 38.59633946 -0.02158187 19.29817442 0 0 Z " fill="#B9BABA" transform="translate(139,173)"/>
<path d="M0 0 C2.85115733 2.76729976 5.51624678 5.57338354 8.0625 8.625 C9.74005052 10.62167325 11.15041717 12.11281288 13.25 13.6875 C16.16370718 15.87278039 16.87440752 18.62322255 18 22 C18.66 22 19.32 22 20 22 C20 22.66 20 23.32 20 24 C20.66 24 21.32 24 22 24 C26 28.47058824 26 28.47058824 26 31 C26.639375 31.226875 27.27875 31.45375 27.9375 31.6875 C30 33 30 33 30.75 35.625 C30.87375 36.800625 30.87375 36.800625 31 38 C27.07093545 36.37773707 24.24108974 33.68281663 21.1875 30.8125 C20.65415039 30.31564697 20.12080078 29.81879395 19.57128906 29.30688477 C18.04208065 27.87691222 16.52015087 26.43958867 15 25 C14.32066406 24.36320312 13.64132813 23.72640625 12.94140625 23.0703125 C11.23704235 21.42499123 9.60790977 19.73970565 8 18 C7.27425781 17.21882813 6.54851562 16.43765625 5.80078125 15.6328125 C-0.5088711 8.38717332 -0.5088711 8.38717332 -0.5 3.375 C-0.2525 1.704375 -0.2525 1.704375 0 0 Z " fill="#B0AEB1" transform="translate(81,372)"/>
<path d="M0 0 C0.33 0 0.66 0 1 0 C1.33 21.12 1.66 42.24 2 64 C2.33 64 2.66 64 3 64 C3 71.92 3 79.84 3 88 C10.92 88 18.84 88 27 88 C27 82.06 27 76.12 27 70 C27.33 70 27.66 70 28 70 C28.33 76.6 28.66 83.2 29 90 C19.43 90 9.86 90 0 90 C0 60.3 0 30.6 0 0 Z " fill="#919294" transform="translate(232,311)"/>
<path d="M0 0 C0.804375 0.185625 1.60875 0.37125 2.4375 0.5625 C6.19667186 1.02415268 9.24296005 0.6795041 12.94921875 0.05859375 C15 0 15 0 18 2 C18.39507893 6.34586828 18.45331002 8.32003497 16 12 C13.375 12.1875 13.375 12.1875 11 12 C11 12.99 11 13.98 11 15 C9.68 15 8.36 15 7 15 C5.22331107 13.02328648 3.74918047 11.16819586 2.25 9 C1.83878906 8.42765625 1.42757813 7.8553125 1.00390625 7.265625 C-0.00912993 5.85208615 -1.0061373 4.4270849 -2 3 C-1.34 2.01 -0.68 1.02 0 0 Z " fill="#181818" transform="translate(350,405)"/>
<path d="M0 0 C3 1.0625 3 1.0625 5 3 C5.65049154 6.9752261 5.62874175 9.05688738 3.375 12.4375 C0.30282628 14.45866692 -1.37646534 14.44369812 -5 14 C-8.82616857 12.8695411 -9.72829279 12.40756081 -12 9 C-11.81159997 5.98559951 -11.43213911 3.76259843 -9.9375 1.125 C-6.7585888 -0.72081941 -3.52571172 -0.48701465 0 0 Z " fill="#1C1C1C" transform="translate(194,432)"/>
<path d="M0 0 C0.99 0.33 1.98 0.66 3 1 C4.03865096 3.36695387 4.89577096 5.61555495 5.6875 8.0625 C5.91244141 8.72572266 6.13738281 9.38894531 6.36914062 10.07226562 C6.92334719 11.71130207 7.46306085 13.35522593 8 15 C6.125 15.625 6.125 15.625 4 16 C3.34 15.34 2.68 14.68 2 14 C2 13.01 2 12.02 2 11 C-0.31 11.66 -2.62 12.32 -5 13 C-4.67 15.31 -4.34 17.62 -4 20 C-5.32 20.33 -6.64 20.66 -8 21 C-9.98 16.05 -11.96 11.1 -14 6 C-13.01 5.01 -12.02 4.02 -11 3 C-10.01 3.33 -9.02 3.66 -8 4 C-7.3125 6.0625 -7.3125 6.0625 -7 8 C-4.69 8 -2.38 8 0 8 C-0.66 5.69 -1.32 3.38 -2 1 C-1.34 0.67 -0.68 0.34 0 0 Z " fill="#070808" transform="translate(321,423)"/>
<path d="M0 0 C0.33 0 0.66 0 1 0 C1 19.14 1 38.28 1 58 C-7.91 58 -16.82 58 -26 58 C-26 39.85 -26 21.7 -26 3 C-24.07851245 6.84297511 -23.7824852 7.91331587 -23.9375 11.9375 C-24.02090746 15.48753015 -23.71642425 18.52022507 -23 22 C-23.15847412 22.56041992 -23.31694824 23.12083984 -23.48022461 23.69824219 C-24.18982028 26.84059445 -24.00160009 29.73581988 -23.87890625 32.953125 C-23.85529526 33.61334656 -23.83168427 34.27356812 -23.80735779 34.95379639 C-23.7310719 37.052769 -23.64689847 39.15133949 -23.5625 41.25 C-23.5092441 42.67706397 -23.45650396 44.10414728 -23.40429688 45.53125 C-23.27646875 49.02116075 -23.13797015 52.5104166 -23 56 C-15.41 56.33 -7.82 56.66 0 57 C0 38.19 0 19.38 0 0 Z " fill="#ADAFAF" transform="translate(353,311)"/>
<path d="M0 0 C1.29481336 0.69206127 2.58625321 1.39045621 3.875 2.09375 C17.19682525 9.05094199 31.36485519 13.7827658 45.875 17.59375 C45.875 18.25375 45.875 18.91375 45.875 19.59375 C46.865 20.25375 47.855 20.91375 48.875 21.59375 C47.24903958 21.53192641 45.62412223 21.44272698 44 21.34375 C42.64261719 21.27414062 42.64261719 21.27414062 41.2578125 21.203125 C36.49930266 20.34593385 32.31783381 18.45871467 27.875 16.59375 C26.24561779 15.95676863 24.6141284 15.32514828 22.98046875 14.69921875 C-3.76495349 4.31384302 -3.76495349 4.31384302 -6.125 -0.40625 C-3.125 -1.40625 -3.125 -1.40625 0 0 Z " fill="#B5B6B8" transform="translate(160.125,407.40625)"/>
<path d="M0 0 C1.31677734 -0.02126953 1.31677734 -0.02126953 2.66015625 -0.04296875 C4.9375 0.1875 4.9375 0.1875 6.9375 2.1875 C7.0625 5.8125 7.0625 5.8125 6.9375 9.1875 C7.5975 9.1875 8.2575 9.1875 8.9375 9.1875 C8.9375 10.1775 8.9375 11.1675 8.9375 12.1875 C5.89363276 12.26976668 3.86574652 12.16358217 0.9375 11.1875 C-0.2175 11.1875 -1.3725 11.1875 -2.5625 11.1875 C-6.0625 11.1875 -6.0625 11.1875 -9.0625 10.1875 C-8.8975 9.259375 -8.7325 8.33125 -8.5625 7.375 C-7.98501612 4.23128647 -7.98501612 4.23128647 -8.0625 1.1875 C-5.12020079 0.2067336 -3.0716216 0.02261872 0 0 Z " fill="#090909" transform="translate(237.0625,442.8125)"/>
<path d="M0 0 C0.33 0 0.66 0 1 0 C1.59553156 6.72950661 -1.38846801 10.01396578 -5.4453125 14.98828125 C-12.76197794 23.47165821 -20.97157743 31.19945842 -29 39 C-29.640625 37.19140625 -29.640625 37.19140625 -30 35 C-26.68803763 30.49205121 -22.74724593 26.77572153 -18.75 22.875 C-12.12374429 16.39675344 -6.69836299 9.11887059 -1.28125 1.62109375 C-0.8584375 1.08613281 -0.435625 0.55117188 0 0 Z " fill="#A9ABAD" transform="translate(393,354)"/>
<path d="M0 0 C2.475 0.99 2.475 0.99 5 2 C5 2.66 5 3.32 5 4 C5.78375 4.12375 6.5675 4.2475 7.375 4.375 C10 5 10 5 12 7 C13 9.125 13 9.125 13 12 C11.25109466 14.88275223 9.19017269 17.44162437 7 20 C5.68 19.67 4.36 19.34 3 19 C3.59950296 15.31733897 4.24758891 11.65456815 5 8 C1.20411134 8.54226981 -0.47211993 10.20127563 -3 13 C-3.66 12.67 -4.32 12.34 -5 12 C-4.58525633 6.71201818 -3.64775386 3.88309282 0 0 Z " fill="#373737" transform="translate(146,409)"/>
<path d="M0 0 C0.61182129 0.1966626 1.22364258 0.3933252 1.85400391 0.59594727 C1.20439697 1.23508057 0.55479004 1.87421387 -0.11450195 2.53271484 C-2.57334857 4.95702525 -5.027281 7.38611595 -7.47827148 9.81835938 C-8.53044338 10.86060965 -9.58441857 11.90104329 -10.64038086 12.93945312 C-16.95668864 19.15354554 -22.8549453 25.42331026 -28.30834961 32.42285156 C-30.14599609 34.59594727 -30.14599609 34.59594727 -33.14599609 36.59594727 C-32.73259303 31.35430844 -30.8744084 28.40591159 -27.45849609 24.59594727 C-26.97880371 24.04559814 -26.49911133 23.49524902 -26.00488281 22.92822266 C-4.90289934 -0.92312837 -4.90289934 -0.92312837 0 0 Z " fill="#F0F0F1" transform="translate(111.14599609375,89.404052734375)"/>
<path d="M0 0 C8.18030512 0.80236307 16.38147292 0.92067301 24.59375 1.125 C26.22982626 1.16829788 27.86589409 1.2119153 29.50195312 1.25585938 C33.46996468 1.36175341 37.43806481 1.46333523 41.40625 1.5625 C41.40625 1.8925 41.40625 2.2225 41.40625 2.5625 C43.38625 2.8925 45.36625 3.2225 47.40625 3.5625 C47.07625 4.5525 46.74625 5.5425 46.40625 6.5625 C45.08625 6.5625 43.76625 6.5625 42.40625 6.5625 C42.40625 5.9025 42.40625 5.2425 42.40625 4.5625 C41.14296875 4.89507812 39.8796875 5.22765625 38.578125 5.5703125 C33.19188494 6.75814452 28.14196534 6.72334679 22.65625 6.4375 C21.67068115 6.39181885 20.6851123 6.3461377 19.66967773 6.29907227 C9.38904391 5.70194199 -0.55749002 3.78932755 -10.59375 1.5625 C-10.59375 1.2325 -10.59375 0.9025 -10.59375 0.5625 C-6.90349244 -0.33513022 -3.73111262 -0.42540001 0 0 Z " fill="#A3A4A5" transform="translate(220.59375,428.4375)"/>
<path d="M0 0 C0.66 0.33 1.32 0.66 2 1 C1.34 1.66 0.68 2.32 0 3 C0 3.99 0 4.98 0 6 C-0.25 8.09765625 -0.25 8.09765625 -1 10 C-2.75 10.87109375 -2.75 10.87109375 -5 11.4375 C-11.27614034 13.26219256 -16.58607858 16.39071905 -22 20 C-23.65549531 20.38499891 -25.3222433 20.72793135 -27 21 C-27 20.34 -27 19.68 -27 19 C-27.66 19 -28.32 19 -29 19 C-29 19.66 -29 20.32 -29 21 C-31.95664519 22.4783226 -34.74229737 22.06032783 -38 22 C-35 20 -35 20 -31.375 18.4375 C-20.26560413 13.55665067 -9.13173855 8.09108458 0 0 Z " fill="#B3B5B6" transform="translate(353,395)"/>
<path d="M0 0 C1.58147408 3.02237268 2.52534241 6.07675128 3.59375 9.3125 C4.73594846 12.25482131 4.73594846 12.25482131 7.65625 12.875 C8.81640625 12.936875 8.81640625 12.936875 10 13 C10 13.66 10 14.32 10 15 C8.35 15.33 6.7 15.66 5 16 C5 16.66 5 17.32 5 18 C5.99 18.33 6.98 18.66 8 19 C4.71303767 19.79953138 3.28976808 20.09658936 0 19 C-1.66967972 19.6590841 -3.33607955 20.32650839 -5 21 C-7.8125 21.125 -7.8125 21.125 -10 21 C-9.34 20.67 -8.68 20.34 -8 20 C-8.66 17.69 -9.32 15.38 -10 13 C-6.91190305 11.23537317 -5.76687864 11 -2 11 C-1.34 12.32 -0.68 13.64 0 15 C0.99 14.67 1.98 14.34 3 14 C1.35 9.71 -0.3 5.42 -2 1 C-3.32 1 -4.64 1 -6 1 C-5.67 1.598125 -5.34 2.19625 -5 2.8125 C-4 5 -4 5 -4 8 C-5.32 7.67 -6.64 7.34 -8 7 C-7.34 7 -6.68 7 -6 7 C-6.66 4.69 -7.32 2.38 -8 0 C-4.62564173 -1.12478609 -3.3017 -1.25381013 0 0 Z " fill="#717375" transform="translate(325,423)"/>
<path d="M0 0 C0.99 0 1.98 0 3 0 C3 0.66 3 1.32 3 2 C2.34 2 1.68 2 1 2 C1 4.31 1 6.62 1 9 C1.66 8.34 2.32 7.68 3 7 C3 7.99 3 8.98 3 10 C3.66 10 4.32 10 5 10 C5.33773437 10.91523438 5.67546875 11.83046875 6.0234375 12.7734375 C6.46945313 13.96195312 6.91546875 15.15046875 7.375 16.375 C7.81585938 17.55835938 8.25671875 18.74171875 8.7109375 19.9609375 C9.7950342 23.04493446 9.7950342 23.04493446 12 25 C12.38749213 27.32495277 12.71758117 29.6599583 13 32 C13.30903983 33.33917261 13.62942911 34.67653254 14 36 C12.13867187 35.74169922 12.13867187 35.74169922 10 35 C8.78320312 33.31689453 8.78320312 33.31689453 7.78125 31.1328125 C7.40790527 30.33415771 7.03456055 29.53550293 6.64990234 28.71264648 C6.27043457 27.85872314 5.8909668 27.0047998 5.5 26.125 C5.10635254 25.26398682 4.71270508 24.40297363 4.30712891 23.51586914 C-1.81443699 9.97333635 -1.81443699 9.97333635 -3 5 C-2.67 4.34 -2.34 3.68 -2 3 C-1.34 3.33 -0.68 3.66 0 4 C0 2.68 0 1.36 0 0 Z " fill="#CBC8CB" transform="translate(50,312)"/>
<path d="M0 0 C0.33 0.99 0.66 1.98 1 3 C1.66 3.33 2.32 3.66 3 4 C-2.16845345 10.85016282 -7.41609845 17.61679918 -12.9375 24.1875 C-13.39745361 24.73946045 -13.85740723 25.2914209 -14.33129883 25.86010742 C-16.44154458 28.34864524 -18.26271159 30.17514106 -21 32 C-21.8125 30.375 -21.8125 30.375 -22 28 C-20.39816945 25.83281749 -18.82616745 23.95660798 -17 22 C-13.35158913 17.90979206 -13.35158913 17.90979206 -11 13 C-10.34 12.67 -9.68 12.34 -9 12 C-8.34 11.01 -7.68 10.02 -7 9 C-6.484375 8.319375 -5.96875 7.63875 -5.4375 6.9375 C-3.95776051 5.06034213 -3.95776051 5.06034213 -3 3 C-2.01979625 1.9805881 -1.02196992 0.97753644 0 0 Z " fill="#BAB7BB" transform="translate(419,363)"/>
<path d="M0 0 C-0.33 0.66 -0.66 1.32 -1 2 C0.65 2 2.3 2 4 2 C4 3.32 4 4.64 4 6 C2.02 6 0.04 6 -2 6 C-2 7.98 -2 9.96 -2 12 C-0.02 12 1.96 12 4 12 C3.67 12.99 3.34 13.98 3 15 C-2.41538462 16.23076923 -2.41538462 16.23076923 -5.375 15.0625 C-6.179375 14.5365625 -6.179375 14.5365625 -7 14 C-7 12.02 -7 10.04 -7 8 C-7.99 8 -8.98 8 -10 8 C-10.33 6.35 -10.66 4.7 -11 3 C-10.01 3 -9.02 3 -8 3 C-8 1.68 -8 0.36 -8 -1 C-3.375 -2.25 -3.375 -2.25 0 0 Z " fill="#262627" transform="translate(263,439)"/>
<path d="M0 0 C3.48601782 0.1884334 4.78097461 0.78689421 7.3125 3.25 C9.12328851 6.2009146 9.38684492 7.61510691 9 11 C8.05125 11.45375 7.1025 11.9075 6.125 12.375 C2.99686321 13.80238254 2.99686321 13.80238254 1 16 C-1.375 16 -1.375 16 -4 15 C-6.375 12.1875 -6.375 12.1875 -8 9 C-7.75 6.625 -7.75 6.625 -7 5 C-3.62496331 6.1858237 -1.35277269 7.27573689 1 10 C0.52491926 7.55672764 0.04141878 5.14910761 -0.625 2.75 C-0.74875 2.1725 -0.8725 1.595 -1 1 C-0.67 0.67 -0.34 0.34 0 0 Z " fill="#191919" transform="translate(341,416)"/>
<path d="M0 0 C2.16827254 3.66720878 2.87286905 7.55053946 3.625 11.6875 C3.82283081 12.75291016 3.82283081 12.75291016 4.0246582 13.83984375 C4.92867268 18.9635664 5.27909346 23.79025548 5 29 C5.99 28.67 6.98 28.34 8 28 C7.67 28.99 7.34 29.98 7 31 C6.85788711 33.71992354 6.76661749 36.4189251 6.71875 39.140625 C6.70034058 39.9410321 6.68193115 40.74143921 6.66296387 41.56610107 C6.60425133 44.12732638 6.55146811 46.68861952 6.5 49.25 C6.43193206 52.6095025 6.35814674 55.9688144 6.28125 59.328125 C6.26767456 60.09191467 6.25409912 60.85570435 6.2401123 61.64263916 C6.13635714 66.17673981 5.73019841 70.52273082 5 75 C4.67 75 4.34 75 4 75 C3.99191315 74.43418213 3.98382629 73.86836426 3.97549438 73.28540039 C3.88840178 67.31376353 3.78887474 61.34241963 3.68261719 55.37109375 C3.6446962 53.15239441 3.60978442 50.93364127 3.578125 48.71484375 C3.56731275 28.61060507 3.56731275 28.61060507 0.43994141 8.81640625 C-0.26719395 5.89682409 -0.057442 2.98698418 0 0 Z " fill="#E7E7E4" transform="translate(449,199)"/>
<path d="M0 0 C1.32 0.33 2.64 0.66 4 1 C3.38921149 4.56293298 2.69013079 7.7887515 1 11 C-1.625 12.8125 -1.625 12.8125 -4 14 C-5.33855056 13.21718695 -6.67073644 12.42348123 -8 11.625 C-8.7425 11.18414062 -9.485 10.74328125 -10.25 10.2890625 C-10.8275 9.86367188 -11.405 9.43828125 -12 9 C-12 8.34 -12 7.68 -12 7 C-14.475 6.01 -14.475 6.01 -17 5 C-16.01 4.34 -15.02 3.68 -14 3 C-12.68 3.66 -11.36 4.32 -10 5 C-9.01 4.01 -8.02 3.02 -7 2 C-7 2.99 -7 3.98 -7 5 C-6.01 5 -5.02 5 -4 5 C-1.79857668 2.5609294 -1.79857668 2.5609294 0 0 Z " fill="#838385" transform="translate(148,416)"/>
<path d="M0 0 C2 1.3125 2 1.3125 3 3 C3 3.99 3 4.98 3 6 C-0.3 6.33 -3.6 6.66 -7 7 C-7 7.66 -7 8.32 -7 9 C-3.7 8.34 -0.4 7.68 3 7 C3 7.99 3 8.98 3 10 C-0.42388808 12.28259205 -1.20194505 12.16215534 -5.125 11.6875 C-6.45917969 11.53861328 -6.45917969 11.53861328 -7.8203125 11.38671875 C-10 11 -10 11 -11 10 C-11.4534413 3.87854251 -11.4534413 3.87854251 -10 1.0625 C-6.77366388 -0.65149106 -3.56632836 -0.55723881 0 0 Z " fill="#141414" transform="translate(287,440)"/>
<path d="M0 0 C2.31 0.33 4.62 0.66 7 1 C7.33 2.65 7.66 4.3 8 6 C8.86625 5.505 8.86625 5.505 9.75 5 C12 4 12 4 16 4 C14.6305697 7.99417171 13.04699404 11.03764468 10 14 C6.75 14.3125 6.75 14.3125 4 14 C3.67 11.69 3.34 9.38 3 7 C2.34 7 1.68 7 1 7 C0.67 4.69 0.34 2.38 0 0 Z " fill="#0C0C0C" transform="translate(206,437)"/>
<path d="M0 0 C0.66 0.33 1.32 0.66 2 1 C2.144375 1.763125 2.28875 2.52625 2.4375 3.3125 C3.05464716 6.26109198 4.06882531 7.73296884 6 10 C9.93075644 9.42547254 9.93075644 9.42547254 13 7 C13.66 6.855625 14.32 6.71125 15 6.5625 C17.38640738 6.12541292 17.38640738 6.12541292 19 3 C19.66 4.32 20.32 5.64 21 7 C20.030625 7.45375 19.06125 7.9075 18.0625 8.375 C14.92920418 9.65786221 14.92920418 9.65786221 14 12 C14.99 12.33 15.98 12.66 17 13 C14.77675074 14.1793149 12.54753361 15.34340918 10.3125 16.5 C9.68666016 16.83386719 9.06082031 17.16773438 8.41601562 17.51171875 C4.79518683 19.3695262 2.08595745 20.43750214 -2 20 C-2 19.34 -2 18.68 -2 18 C-0.35 17.67 1.3 17.34 3 17 C3 16.34 3 15.68 3 15 C3.99 14.67 4.98 14.34 6 14 C6.33 13.34 6.66 12.68 7 12 C6.4225 11.79375 5.845 11.5875 5.25 11.375 C2.09954401 9.44972134 0.73960269 7.22148646 -1 4 C-0.75 1.625 -0.75 1.625 0 0 Z " fill="#898A8B" transform="translate(332,421)"/>
<path d="M0 0 C1.32 0.66 2.64 1.32 4 2 C2.67494706 8.4596331 -1.59409935 12.38917374 -6 17 C-7.65 16.01 -9.3 15.02 -11 14 C-9.18352668 8.00563806 -5.14218863 3.42812575 0 0 Z " fill="#2C2C2D" transform="translate(139,399)"/>
<path d="M0 0 C0.33 0 0.66 0 1 0 C1.17306704 1.91609934 1.3379944 3.83293373 1.5 5.75 C1.5928125 6.81734375 1.685625 7.8846875 1.78125 8.984375 C2.40839354 18.55775892 1.92153187 28.07850606 1.125 37.625 C1.04636719 38.69878906 0.96773438 39.77257812 0.88671875 40.87890625 C0.80292969 41.90113281 0.71914063 42.92335938 0.6328125 43.9765625 C0.55949707 44.89518066 0.48618164 45.81379883 0.41064453 46.76025391 C0 49 0 49 -2 51 C-1.88271126 43.89741338 -1.75787535 36.79498875 -1.62768555 29.69262695 C-1.58426122 27.27436361 -1.54259188 24.8560681 -1.50268555 22.43774414 C-1.44516397 18.97011604 -1.38141813 15.50265097 -1.31640625 12.03515625 C-1.29969376 10.94662857 -1.28298126 9.85810089 -1.26576233 8.73658752 C-1.24581711 7.73562546 -1.22587189 6.73466339 -1.20532227 5.70336914 C-1.18977798 4.81734512 -1.1742337 3.93132111 -1.15821838 3.01844788 C-1 1 -1 1 0 0 Z " fill="#C6BAB7" transform="translate(456,229)"/>
<path d="M0 0 C0.66 0 1.32 0 2 0 C2 25.41 2 50.82 2 77 C1.67 77 1.34 77 1 77 C0.8312461 74.60429729 0.66493164 72.20846637 0.5 69.8125 C0.45230469 69.13896484 0.40460938 68.46542969 0.35546875 67.77148438 C0.10976179 64.17363248 -0.05601984 60.60627694 0 57 C-0.66 57 -1.32 57 -2 57 C-1 55 -1 55 0 54 C-0.09031574 51.64305046 -0.24688128 49.28846418 -0.4375 46.9375 C-0.53933594 45.64714844 -0.64117187 44.35679687 -0.74609375 43.02734375 C-0.82988281 42.02832031 -0.91367188 41.02929688 -1 40 C-0.34 40 0.32 40 1 40 C0.67 26.8 0.34 13.6 0 0 Z " fill="#E5E6E7" transform="translate(166,174)"/>
<path d="M0 0 C0.99 0 1.98 0 3 0 C3 0.99 3 1.98 3 3 C4.11375 2.95875 5.2275 2.9175 6.375 2.875 C10 3 10 3 12 5 C12.4284117 8.17024657 12.05701211 9.87172274 10.75 12.8125 C10.1725 13.534375 9.595 14.25625 9 15 C7.68 15 6.36 15 5 15 C5.66 11.7 6.32 8.4 7 5 C5.35 5.33 3.7 5.66 2 6 C0.9590934 7.64142963 -0.04504326 9.30712215 -1 11 C-1.99 11 -2.98 11 -4 11 C-2.95902388 7.13351728 -1.96301592 3.50538557 0 0 Z " fill="#0B0B0B" transform="translate(165,423)"/>
<path d="M0 0 C3.61596342 1.0331324 4.97309265 1.74088897 7.0625 4.875 C8.11064592 9.79322315 8.11064592 9.79322315 7.0625 12.875 C4.46838916 15.89230265 1.73344094 18.29923839 -1.9375 19.875 C-6.82801568 18.98859403 -8.90617224 15.85779621 -11.75 12 C-12.93529297 10.42605469 -12.93529297 10.42605469 -14.14453125 8.8203125 C-15.9375 5.875 -15.9375 5.875 -15.9375 1.875 C-14.9475 2.205 -13.9575 2.535 -12.9375 2.875 C-12.9375 3.865 -12.9375 4.855 -12.9375 5.875 C-11.39667622 8.14464985 -11.39667622 8.14464985 -9.4375 10.4375 C-5.9375 14.66666667 -5.9375 14.66666667 -5.9375 16.875 C-4.6175 16.875 -3.2975 16.875 -1.9375 16.875 C-1.9375 15.885 -1.9375 14.895 -1.9375 13.875 C-0.2875 13.875 1.3625 13.875 3.0625 13.875 C3.7225 10.575 4.3825 7.275 5.0625 3.875 C1.64453125 3.53320312 1.64453125 3.53320312 -1.7734375 3.19140625 C-3.9375 2.875 -3.9375 2.875 -5.9375 1.875 C-2.9375 -0.125 -2.9375 -0.125 0 0 Z " fill="#6E7071" transform="translate(362.9375,403.125)"/>
<path d="M0 0 C0.33 0 0.66 0 1 0 C0.67 5.28 0.34 10.56 0 16 C0.66 16 1.32 16 2 16 C1.37802877 22.33881314 0.71457113 28.67094142 0 35 C-0.66 34.34 -1.32 33.68 -2 33 C-2.66 34.32 -3.32 35.64 -4 37 C-4.68160213 24.57969443 -2.56546616 12.12992253 0 0 Z " fill="#DFDBDE" transform="translate(41,201)"/>
<path d="M0 0 C1.33031802 2.17051887 1.48068351 3.55336806 1.75 6.0625 C1.894375 7.34125 2.03875 8.62 2.1875 9.9375 C2.8475 10.2675 3.5075 10.5975 4.1875 10.9375 C-0.54989985 13.46411325 -5.57010586 13.51714683 -10.8125 12.9375 C-13.05859375 12.1640625 -13.05859375 12.1640625 -14.8125 10.9375 C-15.90398767 8.31110779 -16.05286538 5.76039573 -15.8125 2.9375 C-14.05882444 0.40441309 -12.73999498 -0.66058551 -9.9375 -1.875 C-6.32285776 -2.19393902 -3.16117735 -1.85310396 0 0 Z M-12.8125 1 C-14.33940415 3.95837678 -13.99718872 6.67466599 -13.8125 9.9375 C-9.98992309 11.73635972 -7.0334225 12.30453674 -2.8125 11.9375 C-1.8225 11.2775 -0.8325 10.6175 0.1875 9.9375 C0.1875 8.9475 0.1875 7.9575 0.1875 6.9375 C-3.1125 7.5975 -6.4125 8.2575 -9.8125 8.9375 C-9.8125 8.2775 -9.8125 7.6175 -9.8125 6.9375 C-6.5125 6.6075 -3.2125 6.2775 0.1875 5.9375 C-0.44091973 1.9660831 -0.44091973 1.9660831 -2.8125 -0.0625 C-8.01639101 -0.5715614 -8.01639101 -0.5715614 -12.8125 1 Z " fill="#5D5D5F" transform="translate(289.8125,440.0625)"/>
<path d="M0 0 C3.43117231 3.33025548 6.59166135 6.78849411 9.66796875 10.44921875 C10.72555357 11.68048318 11.85228537 12.85228537 13 14 C12.34 15.65 11.68 17.3 11 19 C5.78392572 17.26130857 2.81517721 12.57384269 0 8 C-0.64161926 4.98487188 -0.45820939 3.09291337 0 0 Z " fill="#B5B4B8" transform="translate(81,372)"/>
<path d="M0 0 C2.0625 0.061875 4.125 0.12375 6.25 0.1875 C6.25 8.4375 6.25 16.6875 6.25 25.1875 C4.43752079 21.56254158 4.00135958 20.5923294 4.0546875 16.859375 C4.06113281 16.06015625 4.06757813 15.2609375 4.07421875 14.4375 C4.09097656 13.6125 4.10773438 12.7875 4.125 11.9375 C4.13402344 11.09703125 4.14304687 10.2565625 4.15234375 9.390625 C4.17584183 7.32279396 4.21171092 5.25511005 4.25 3.1875 C-0.7 3.1875 -5.65 3.1875 -10.75 3.1875 C-6.32129086 -0.13403186 -5.28391318 -0.1585174 0 0 Z " fill="#E2E3E4" transform="translate(312.75,258.8125)"/>
<path d="M0 0 C0.33 1.32 0.66 2.64 1 4 C0.01 4.495 0.01 4.495 -1 5 C-1 5.66 -1 6.32 -1 7 C-0.34 7.33 0.32 7.66 1 8 C0.46890625 8.71285156 -0.0621875 9.42570312 -0.609375 10.16015625 C-4.40185947 15.30215617 -7.99208971 20.36016821 -11 26 C-11.33 25.34 -11.66 24.68 -12 24 C-12.66 24 -13.32 24 -14 24 C-12.66260241 21.26451812 -11.23220148 18.61975915 -9.6875 15.99609375 C-9.25179688 15.25552734 -8.81609375 14.51496094 -8.3671875 13.75195312 C-7.91601562 12.98818359 -7.46484375 12.22441406 -7 11.4375 C-6.54882812 10.66986328 -6.09765625 9.90222656 -5.6328125 9.11132812 C-3.81316328 6.02384638 -1.98877761 2.98316642 0 0 Z " fill="#A9ABAE" transform="translate(408,330)"/>
<path d="M0 0 C3.89954072 0.40340076 5.69836623 0.78283866 8.625 3.375 C9.875 6.8125 9.875 6.8125 10.625 10.375 C10.8725 11.138125 11.12 11.90125 11.375 12.6875 C11.49875 13.5228125 11.49875 13.5228125 11.625 14.375 C10.965 15.035 10.305 15.695 9.625 16.375 C6.70547432 16.35751781 3.90202115 16.23555367 1 16 C0.19820312 15.94328125 -0.60359375 15.8865625 -1.4296875 15.828125 C-3.41215498 15.68652018 -5.39369051 15.53197741 -7.375 15.375 C-7.375 14.385 -7.375 13.395 -7.375 12.375 C4.14664009 12.0059795 4.14664009 12.0059795 9.625 14.375 C9.625 13.385 9.625 12.395 9.625 11.375 C8.965 11.375 8.305 11.375 7.625 11.375 C7.480625 10.240625 7.33625 9.10625 7.1875 7.9375 C7.01328522 4.56722799 7.01328522 4.56722799 5.625 3.375 C3.60535801 3.30255947 1.58332876 3.29122812 -0.4375 3.3125 C-1.54222656 3.32152344 -2.64695313 3.33054687 -3.78515625 3.33984375 C-4.63980469 3.35144531 -5.49445313 3.36304688 -6.375 3.375 C-4.10048104 0.76964192 -3.646191 0.40513233 0 0 Z " fill="#5C5D5E" transform="translate(236.375,440.625)"/>
<path d="M0 0 C0.33 0.99 0.66 1.98 1 3 C-1.91555115 3.67189656 -4.83226951 4.33769308 -7.75 5 C-8.575 5.19078125 -9.4 5.3815625 -10.25 5.578125 C-11.44882812 5.84882813 -11.44882812 5.84882813 -12.671875 6.125 C-13.4050293 6.29257812 -14.13818359 6.46015625 -14.89355469 6.6328125 C-17 7 -17 7 -21 7 C-21 6.34 -21 5.68 -21 5 C-22.98 5 -24.96 5 -27 5 C-27 4.67 -27 4.34 -27 4 C-25.13794922 3.69255859 -25.13794922 3.69255859 -23.23828125 3.37890625 C-21.59634697 3.10681428 -19.95442028 2.83467645 -18.3125 2.5625 C-17.08756836 2.36043945 -17.08756836 2.36043945 -15.83789062 2.15429688 C-12.60115477 1.61702493 -9.37873825 1.07992683 -6.16796875 0.40234375 C-4 0 -4 0 0 0 Z " fill="#A6A7AA" transform="translate(294,425)"/>
<path d="M0 0 C0.3403125 0.928125 0.3403125 0.928125 0.6875 1.875 C2.42240381 4.68389189 3.90640051 4.94536381 7 6 C9.00751815 6.98482022 11.00934459 7.98152514 13 9 C13 9.33 13 9.66 13 10 C7.11687574 10.35844201 2.67718636 9.17232449 -2.8125 7.125 C-3.57498047 6.85558594 -4.33746094 6.58617187 -5.12304688 6.30859375 C-10.72057039 4.27942961 -10.72057039 4.27942961 -13 2 C-12.22914063 2.02320313 -11.45828125 2.04640625 -10.6640625 2.0703125 C-9.15972656 2.09738281 -9.15972656 2.09738281 -7.625 2.125 C-6.62726563 2.14820313 -5.62953125 2.17140625 -4.6015625 2.1953125 C-1.83737827 2.27216848 -1.83737827 2.27216848 0 0 Z " fill="#999597" transform="translate(178,440)"/>
<path d="M0 0 C0.66 0.33 1.32 0.66 2 1 C2.99 1 3.98 1 5 1 C5.66 1.33 6.32 1.66 7 2 C4.05591641 3.51974685 1.0749124 4.82972262 -2 6.0625 C-2.845625 6.40410156 -3.69125 6.74570312 -4.5625 7.09765625 C-8.6419205 8.60782634 -12.7087113 9.31729498 -17 10 C-17.66 9.01 -18.32 8.02 -19 7 C-18.07380859 6.74476563 -18.07380859 6.74476563 -17.12890625 6.484375 C-11.77064502 4.95111303 -6.81404617 3.13692276 -1.8125 0.671875 C-1.214375 0.45015625 -0.61625 0.2284375 0 0 Z " fill="#A1A2A4" transform="translate(313,417)"/>
<path d="M0 0 C3.39485934 1.37730039 6.420821 3.47071671 9.5 5.4375 C10.4384375 6.03433594 11.376875 6.63117188 12.34375 7.24609375 C14.6322267 8.75716145 16.82932625 10.32591906 19 12 C15.62182575 12.84454356 13.32534757 13.10844919 10 12 C10 11.34 10 10.68 10 10 C8.02 10.99 8.02 10.99 6 12 C6 10.68 6 9.36 6 8 C5.01 7.67 4.02 7.34 3 7 C2.01 7.495 2.01 7.495 1 8 C0.814375 6.824375 0.814375 6.824375 0.625 5.625 C0.20882007 2.85942178 0.20882007 2.85942178 -2 1 C-1.34 0.67 -0.68 0.34 0 0 Z " fill="#B6B6B8" transform="translate(136,393)"/>
<path d="M0 0 C0.33 0 0.66 0 1 0 C1.57850478 3.22309804 1.38003995 5.34800486 -0.27734375 8.19140625 C-4.19837957 13.44612772 -8.5463883 17.38786758 -14 21 C-13.4710552 16.68381046 -10.74851725 13.77753854 -8.125 10.5 C-7.23166506 9.36466655 -6.33843342 8.22925182 -5.4453125 7.09375 C-4.63835937 6.0728125 -3.83140625 5.051875 -3 4 C-2.41992188 3.2059375 -1.83984375 2.411875 -1.2421875 1.59375 C-0.83226562 1.0678125 -0.42234375 0.541875 0 0 Z " fill="#B2B4B5" transform="translate(393,354)"/>
<path d="M0 0 C-1 2 -1 2 -2.71484375 2.59765625 C-8.46469187 3.80017282 -14.14892473 4.51529554 -20 5 C-22.04175313 5.18655612 -24.08342112 5.37404656 -26.125 5.5625 C-27.74995883 5.70879131 -29.3749437 5.85479535 -31 6 C-28.50823042 2.94560654 -26.43087523 2.42587008 -22.59765625 1.796875 C-21.01500977 1.53390625 -21.01500977 1.53390625 -19.40039062 1.265625 C-18.29888672 1.09546875 -17.19738281 0.9253125 -16.0625 0.75 C-14.96486328 0.564375 -13.86722656 0.37875 -12.73632812 0.1875 C-3.81379543 -1.24968647 -3.81379543 -1.24968647 0 0 Z " fill="#9C9B9E" transform="translate(303,451)"/>
<path d="M0 0 C2.12258672 6.63308351 0.96873225 11.84630327 -1.83203125 17.984375 C-3.00999503 20.01724895 -4.26530072 21.42932673 -6 23 C-7.19960693 18.12159849 -6.76765392 15.4786811 -4.6875 10.9375 C-4.23761719 9.93589844 -3.78773438 8.93429687 -3.32421875 7.90234375 C-2.88722656 6.94457031 -2.45023437 5.98679687 -2 5 C-1.32359376 3.33726225 -0.65342279 1.67190337 0 0 Z " fill="#C7C8CA" transform="translate(416,309)"/>
<path d="M0 0 C0.66 0.99 1.32 1.98 2 3 C0.98819642 6.77126791 0.32378142 7.78414572 -3 10 C-3.99 10 -4.98 10 -6 10 C-6 10.66 -6 11.32 -6 12 C-3.03 12.495 -3.03 12.495 0 13 C-0.33 13.99 -0.66 14.98 -1 16 C-2.258125 15.87625 -3.51625 15.7525 -4.8125 15.625 C-5.52019531 15.55539062 -6.22789062 15.48578125 -6.95703125 15.4140625 C-9 15 -9 15 -12 13 C-11.34 12.67 -10.68 12.34 -10 12 C-11.32 11.34 -12.64 10.68 -14 10 C-13.34 9.01 -12.68 8.02 -12 7 C-11.34 7.33 -10.68 7.66 -10 8 C-5.8716348 8.40270732 -5.8716348 8.40270732 -2.1875 6.8125 C-0.72461964 4.57968261 -0.35494045 2.62655933 0 0 Z " fill="#7F7E7F" transform="translate(199,437)"/>
<path d="M0 0 C0.66 0 1.32 0 2 0 C4.61046448 2.84777943 6.42676569 5.13066838 7 9 C8.65 9.33 10.3 9.66 12 10 C11.01 10.495 11.01 10.495 10 11 C10 12.32 10 13.64 10 15 C9.01 15 8.02 15 7 15 C5.30369687 13.03123367 3.80463882 11.11326838 2.3125 9 C1.89677734 8.42765625 1.48105469 7.8553125 1.05273438 7.265625 C0.02643139 5.85003468 -0.98793399 4.42580369 -2 3 C-1.34 2.01 -0.68 1.02 0 0 Z " fill="#060606" transform="translate(350,405)"/>
<path d="M0 0 C1.32 0.66 2.64 1.32 4 2 C2.36041242 7.23272633 0.61047965 12.15196636 -2 17 C-2.99 16.67 -3.98 16.34 -5 16 C-5 13.69 -5 11.38 -5 9 C-4.34 9 -3.68 9 -3 9 C-2.01 6.03 -1.02 3.06 0 0 Z " fill="#C4C2C2" transform="translate(437,328)"/>
<path d="M0 0 C1.165994 3.49798199 0.77249194 4.41657139 -0.25 7.875 C-2.71823802 17.0882387 -3.76199529 26.55772613 -5 36 C-5.33 36 -5.66 36 -6 36 C-6.35414629 28.45799576 -5.94260369 21.41705438 -4.625 14 C-4.49891357 13.28271729 -4.37282715 12.56543457 -4.24291992 11.82641602 C-2.48164142 2.48164142 -2.48164142 2.48164142 0 0 Z " fill="#E8E8E9" transform="translate(72,199)"/>
<path d="M0 0 C0.33 0.99 0.66 1.98 1 3 C-1.09885314 4.98507793 -3.20363882 6.96310393 -5.3125 8.9375 C-6.20485352 9.78344727 -6.20485352 9.78344727 -7.11523438 10.64648438 C-7.69208984 11.18466797 -8.26894531 11.72285156 -8.86328125 12.27734375 C-9.39219971 12.77484131 -9.92111816 13.27233887 -10.46606445 13.78491211 C-12 15 -12 15 -15 16 C-16.09166275 17.93330603 -16.09166275 17.93330603 -17 20 C-17.66 20.66 -18.32 21.32 -19 22 C-19.99 21.67 -20.98 21.34 -22 21 C-19.27501963 18.24582502 -16.54428688 15.49742262 -13.8125 12.75 C-13.04357422 11.97269531 -12.27464844 11.19539063 -11.48242188 10.39453125 C-7.80552676 6.70185547 -4.18873492 3.12266411 0 0 Z " fill="#D2CDD0" transform="translate(109,89)"/>
<path d="M0 0 C2.31 0.33 4.62 0.66 7 1 C4.7094047 5.02828828 2.38421643 9.02630594 0 13 C-0.33 13.66 -0.66 14.32 -1 15 C-3.64 14.67 -6.28 14.34 -9 14 C-9.33 11.03 -9.66 8.06 -10 5 C-8 8 -8 8 -8 12 C-5.20287857 12.20794918 -5.20287857 12.20794918 -2 11 C0.34714739 8.19822496 2.19332308 5.17129459 4 2 C2.02 2.66 0.04 3.32 -2 4 C-1.34 2.68 -0.68 1.36 0 0 Z " fill="#606062" transform="translate(218,439)"/>
<path d="M0 0 C1.44273779 0.72403077 2.88008476 1.45888078 4.3125 2.203125 C5.03695312 2.5640625 5.76140625 2.925 6.5078125 3.296875 C9.95050744 5.04998165 12.66314565 6.59386027 15.3125 9.453125 C7.41733208 8.45980669 0.94410933 5.88222161 -5.6875 1.453125 C-6.0175 0.793125 -6.3475 0.133125 -6.6875 -0.546875 C-3.6875 -1.546875 -3.6875 -1.546875 0 0 Z " fill="#C1C2C4" transform="translate(160.6875,407.546875)"/>
<path d="M0 0 C0.33 0 0.66 0 1 0 C1 11.88 1 23.76 1 36 C0.67 36 0.34 36 0 36 C-0.33589182 31.51687243 -0.6569291 27.03299993 -0.96435547 22.54785156 C-1.07097139 21.02282263 -1.18161253 19.49806946 -1.29638672 17.97363281 C-1.46084505 15.77990166 -1.61071043 13.5855799 -1.7578125 11.390625 C-1.81188263 10.7113092 -1.86595276 10.03199341 -1.92166138 9.33209229 C-2.15293549 5.64735265 -2.06249131 3.12498683 0 0 Z " fill="#C6C7C9" transform="translate(167,320)"/>
<path d="M0 0 C1.9375 0.75 1.9375 0.75 4 2 C4.75 4.125 4.75 4.125 5 6 C6.98 5.67 8.96 5.34 11 5 C10.42655063 7.86724686 10.1385485 8.8614515 8 11 C5.625 11 5.625 11 3 10 C0.625 7.1875 0.625 7.1875 -1 4 C-0.75 1.625 -0.75 1.625 0 0 Z " fill="#0B0B0B" transform="translate(334,421)"/>
<path d="M0 0 C4.79537135 0.59942142 8.98430153 2.35267985 13 5 C14.75 7.25 14.75 7.25 15 10 C13.93356415 12.83502995 12.55739436 15.4064879 11 18 C9.68 17.67 8.36 17.34 7 17 C7.99 17 8.98 17 10 17 C11.59555725 13.50971852 12.32049797 10.84597567 12 7 C10.03177114 5.03177114 6.65191291 5.33751619 4 5 C4 4.01 4 3.02 4 2 C3.01 2 2.02 2 1 2 C0.34 3.65 -0.32 5.3 -1 7 C-1.33 6.34 -1.66 5.68 -2 5 C-1.0625 2.375 -1.0625 2.375 0 0 Z " fill="#59595B" transform="translate(164,421)"/>
<path d="M0 0 C1.92148755 3.84297511 2.2175148 4.91331587 2.0625 8.9375 C1.97909254 12.48753015 2.28357575 15.52022507 3 19 C2.67751743 20.33599921 2.34227417 21.66893378 2 23 C1.9072941 25.67302019 1.95540201 28.32412069 2 31 C1.34 31.33 0.68 31.66 0 32 C0 21.44 0 10.88 0 0 Z " fill="#B3B5B2" transform="translate(327,314)"/>
<path d="M0 0 C0.33 0.66 0.66 1.32 1 2 C1.66 2 2.32 2 3 2 C1.55575365 5.23861303 -0.25772247 7.61969163 -2.625 10.25 C-3.25664062 10.95640625 -3.88828125 11.6628125 -4.5390625 12.390625 C-5.02117187 12.92171875 -5.50328125 13.4528125 -6 14 C-6.66 13.67 -7.32 13.34 -8 13 C-7.42232855 9.1007177 -5.51314508 6.95664127 -3 4 C-1.99426222 2.67098936 -0.99204592 1.33926199 0 0 Z " fill="#BEAEBA" transform="translate(405,381)"/>
<path d="M0 0 C0 0.99 0 1.98 0 3 C-1.423125 4.36125 -1.423125 4.36125 -2.875 5.75 C-6.75750585 9.48599619 -7.82258709 13.02713498 -8.14453125 18.421875 C-8.22718159 23.38089544 -7.84903813 28.11803073 -7 33 C-10.4250796 29.5749204 -10.15742372 25.87338381 -10.1875 21.1875 C-10.0815834 13.25338342 -8.73910157 8.29409825 -3.4375 2.3828125 C-2 1 -2 1 0 0 Z " fill="#C5C8C9" transform="translate(231,97)"/>
<path d="M0 0 C0.33 1.32 0.66 2.64 1 4 C-0.65 4.66 -2.3 5.32 -4 6 C-3.34 6.66 -2.68 7.32 -2 8 C-2 7.34 -2 6.68 -2 6 C-1.34 6 -0.68 6 0 6 C0.66 7.65 1.32 9.3 2 11 C0.9375 12.5 0.9375 12.5 -1 14 C-4.5625 14.375 -4.5625 14.375 -8 14 C-8.66 13.01 -9.32 12.02 -10 11 C-8.906875 11.226875 -7.81375 11.45375 -6.6875 11.6875 C-3.09468727 12.40146383 -3.09468727 12.40146383 -1.0625 10.5625 C-0.711875 10.046875 -0.36125 9.53125 0 9 C-1.98 9 -3.96 9 -6 9 C-6 7.02 -6 5.04 -6 3 C-4.02 3 -2.04 3 0 3 C0 2.01 0 1.02 0 0 Z " fill="#5F5F61" transform="translate(267,442)"/>
<path d="M0 0 C4.34435207 7.5387286 4.28783402 17.50889651 4 26 C3.34 26 2.68 26 2 26 C0.79268308 17.31163005 -0.38064163 8.79705092 0 0 Z " fill="#D1C9C3" transform="translate(452,202)"/>
<path d="M0 0 C0.66 0.33 1.32 0.66 2 1 C1.67 2.0725 1.34 3.145 1 4.25 C-0.1717751 7.99731601 -0.1717751 7.99731601 0 12 C-0.55246712 14.70314272 -1.28850498 17.33189369 -2 20 C-2.99 20 -3.98 20 -5 20 C-3.68 14.72 -2.36 9.44 -1 4 C-1.66 3.67 -2.32 3.34 -3 3 C-2.01 3 -1.02 3 0 3 C0 2.01 0 1.02 0 0 Z " fill="#EEEFEF" transform="translate(48,182)"/>
<path d="M0 0 C0.66 0.33 1.32 0.66 2 1 C-4.27 7.27 -10.54 13.54 -17 20 C-17.66 19.67 -18.32 19.34 -19 19 C-14.15525095 13.42629565 -9.2883966 8.13125855 -3.62890625 3.375 C-1.89099423 1.94714425 -1.89099423 1.94714425 0 0 Z " fill="#2A2B2B" transform="translate(132,108)"/>
<path d="M0 0 C0.99 0.33 1.98 0.66 3 1 C2.58578031 5.83256305 0.53586014 7.82679218 -3 11 C-3.66 10.67 -4.32 10.34 -5 10 C-4.38545304 6.00544473 -2.29353263 3.25533664 0 0 Z " fill="#070707" transform="translate(146,411)"/>
<path d="M0 0 C6.22987798 0.50512524 11.45474233 3.32604123 17 6 C13.51669474 7.16110175 12.48147304 6.77231701 9.0625 5.6875 C7.78052734 5.29111328 7.78052734 5.29111328 6.47265625 4.88671875 C4.20360148 4.07301348 2.12625364 3.12972641 0 2 C0 1.34 0 0.68 0 0 Z " fill="#A6A1A4" transform="translate(154,436)"/>
<path d="M0 0 C1.67542976 0.28604898 3.34385343 0.61781233 5 1 C6.125 4.75 6.125 4.75 5 7 C2.03 6.505 2.03 6.505 -1 6 C-1.042721 4.33388095 -1.04063832 2.66617115 -1 1 C-0.67 0.67 -0.34 0.34 0 0 Z " fill="#707073" transform="translate(189,436)"/>
<path d="M0 0 C4.42580434 5.63284189 5.23709676 8.88709728 5 16 C4.34 16 3.68 16 3 16 C1.68 13.36 0.36 10.72 -1 8 C-0.01 8 0.98 8 2 8 C1.67 7.4225 1.34 6.845 1 6.25 C0 4 0 4 0 0 Z " fill="#C9C4C8" transform="translate(62,340)"/>
<path d="M0 0 C2.475 0.99 2.475 0.99 5 2 C5.625 5.375 5.625 5.375 6 9 C5.34 9.66 4.68 10.32 4 11 C3.13050683 9.92892883 2.27985795 8.84254056 1.4375 7.75 C0.96183594 7.14671875 0.48617187 6.5434375 -0.00390625 5.921875 C-1 4 -1 4 -0.65234375 1.765625 C-0.43707031 1.18296875 -0.22179687 0.6003125 0 0 Z " fill="#C7BEC8" transform="translate(76,367)"/>
<path d="M0 0 C6.40629424 -0.20852314 11.92972642 -0.1583195 18 2 C17.67 2.66 17.34 3.32 17 4 C11.39 3.67 5.78 3.34 0 3 C0 2.01 0 1.02 0 0 Z " fill="#626466" transform="translate(229,453)"/>
<path d="M0 0 C-0.56959153 3.62613199 -1.92374534 5.25517741 -4.5625 7.75 C-5.52349609 8.67039062 -5.52349609 8.67039062 -6.50390625 9.609375 C-6.99761719 10.06828125 -7.49132812 10.5271875 -8 11 C-8.671875 9.234375 -8.671875 9.234375 -9 7 C-7.890625 5.078125 -7.890625 5.078125 -6.25 3.25 C-5.71890625 2.63640625 -5.1878125 2.0228125 -4.640625 1.390625 C-3 0 -3 0 0 0 Z " fill="#B3B7B8" transform="translate(372,382)"/>
<path d="M0 0 C-1.19899698 3.0831351 -2.47700477 6.06279492 -4 9 C-4.99 9 -5.98 9 -7 9 C-6.65171318 3.60155422 -6.65171318 3.60155422 -6 1 C-3.57219651 -0.95790604 -2.83012171 -1.41506085 0 0 Z " fill="#C2BBC0" transform="translate(427,357)"/>
<path d="M0 0 C6.0018137 -0.21824777 11.19233704 0.4943096 17 2 C13.30594568 4.46270288 11.36722928 4.22985417 7 4 C4.5625 3.5 4.5625 3.5 3 3 C3 2.34 3 1.68 3 1 C2.01 0.67 1.02 0.34 0 0 Z " fill="#9B969A" transform="translate(195,451)"/>
<path d="M0 0 C3.21043882 1.38188453 5.04936365 2.92421903 7.25 5.625 C7.77078125 6.25664062 8.2915625 6.88828125 8.828125 7.5390625 C9.40820312 8.26222656 9.40820312 8.26222656 10 9 C9.34 9.66 8.68 10.32 8 11 C6.86800647 10.0919838 5.74467637 9.17316174 4.625 8.25 C3.99851562 7.73953125 3.37203125 7.2290625 2.7265625 6.703125 C0.91687682 4.91800519 -0.00117455 3.32050356 -1 1 C-0.67 0.67 -0.34 0.34 0 0 Z " fill="#C0C1C4" transform="translate(117,376)"/>
<path d="M0 0 C1.98 0.495 1.98 0.495 4 1 C3.74337755 2.44010481 3.46909179 3.8770687 3.1875 5.3125 C3.03667969 6.11300781 2.88585937 6.91351563 2.73046875 7.73828125 C1.92427764 10.23445587 0.97947998 11.32422106 -1 13 C-1.02696365 11.20841511 -1.04637917 9.41671527 -1.0625 7.625 C-1.07410156 6.62726563 -1.08570313 5.62953125 -1.09765625 4.6015625 C-1 2 -1 2 0 0 Z " fill="#BEB2B2" transform="translate(442,315)"/>
<path d="M0 0 C0.99 0 1.98 0 3 0 C2.3808361 2.584859 1.75492318 5.16776172 1.125 7.75 C0.95097656 8.47960937 0.77695312 9.20921875 0.59765625 9.9609375 C-0.27908598 13.53285028 -1.12686823 16.79373841 -3 20 C-2.56367091 13.11059329 -1.91610155 6.64248536 0 0 Z " fill="#BBAEAF" transform="translate(450,293)"/>
<path d="M0 0 C2.05078125 0.03255208 4.1015625 0.06510417 6.15234375 0.09765625 C6.15234375 0.42765625 6.15234375 0.75765625 6.15234375 1.09765625 C4.94578125 1.28328125 4.94578125 1.28328125 3.71484375 1.47265625 C2.86921875 1.67890625 2.02359375 1.88515625 1.15234375 2.09765625 C0.82234375 2.75765625 0.49234375 3.41765625 0.15234375 4.09765625 C2.13234375 4.09765625 4.11234375 4.09765625 6.15234375 4.09765625 C5.82234375 4.75765625 5.49234375 5.41765625 5.15234375 6.09765625 C-1.59765625 6.22265625 -1.59765625 6.22265625 -3.84765625 5.09765625 C-2.72914438 0.14424653 -2.72914438 0.14424653 0 0 Z " fill="#040404" transform="translate(232.84765625,447.90234375)"/>
<path d="M0 0 C-2.54996436 3.1166231 -5.14330357 4.01692052 -9 5 C-12.375 5.125 -12.375 5.125 -15 5 C-12.91806813 2.91806813 -11.28020285 2.03424616 -8.625 0.8125 C-7.85414063 0.44769531 -7.08328125 0.08289063 -6.2890625 -0.29296875 C-3.72666635 -1.08442558 -2.48946307 -0.89234179 0 0 Z " fill="#9C999C" transform="translate(329,442)"/>
<path d="M0 0 C5.47826087 -0.36521739 5.47826087 -0.36521739 7.875 1.3125 C9 3 9 3 9 6 C6.69 6 4.38 6 2 6 C2 5.34 2 4.68 2 4 C2.66 4 3.32 4 4 4 C4 3.34 4 2.68 4 2 C2.35 2 0.7 2 -1 2 C-0.67 1.34 -0.34 0.68 0 0 Z " fill="#080808" transform="translate(281,440)"/>
<path d="M0 0 C0.99 0 1.98 0 3 0 C2.67 3.63 2.34 7.26 2 11 C0.68 11.33 -0.64 11.66 -2 12 C-1.85831863 10.56208484 -1.71148957 9.1246763 -1.5625 7.6875 C-1.48128906 6.88699219 -1.40007812 6.08648437 -1.31640625 5.26171875 C-1 3 -1 3 0 0 Z " fill="#CDCACB" transform="translate(445,305)"/>
<path d="M0 0 C2.125 0.375 2.125 0.375 4 1 C3.67 2.65 3.34 4.3 3 6 C1.68 6.33 0.36 6.66 -1 7 C-1.625 4.625 -1.625 4.625 -2 2 C-1.34 1.34 -0.68 0.68 0 0 Z " fill="#7C7D7E" transform="translate(360,408)"/>
<path d="M0 0 C2.31 0.33 4.62 0.66 7 1 C7.33 2.65 7.66 4.3 8 6 C8.66 6 9.32 6 10 6 C9.67 6.99 9.34 7.98 9 9 C8.34 9 7.68 9 7 9 C6.731875 8.030625 6.46375 7.06125 6.1875 6.0625 C5.795625 5.051875 5.40375 4.04125 5 3 C4.01 2.67 3.02 2.34 2 2 C2 3.65 2 5.3 2 7 C0.5393715 4.35261084 0 3.10551666 0 0 Z " fill="#646567" transform="translate(206,437)"/>
<path d="M0 0 C3.82946843 1.45255699 5.12050295 3.42895561 7 7 C6.34 7 5.68 7 5 7 C4.67 7.66 4.34 8.32 4 9 C3.38125 8.21625 2.7625 7.4325 2.125 6.625 C0.10141339 4.03162353 0.10141339 4.03162353 -2 2 C-1.34 1.34 -0.68 0.68 0 0 Z " fill="#BDBFC1" transform="translate(99,354)"/>
<path d="M0 0 C0.33 0.99 0.66 1.98 1 3 C1.66 3.66 2.32 4.32 3 5 C-1.86453831 5.97290766 -4.32725624 5.55758125 -9 4 C-6.02819057 2.10134397 -3.48539917 0.64544429 0 0 Z " fill="#828386" transform="translate(305,446)"/>
<path d="M0 0 C0.33 0.66 0.66 1.32 1 2 C4.3 1.67 7.6 1.34 11 1 C11 1.66 11 2.32 11 3 C10.38511719 3.09796875 9.77023438 3.1959375 9.13671875 3.296875 C4.00590695 4.13291046 4.00590695 4.13291046 -0.0625 7.125 C-0.371875 7.74375 -0.68125 8.3625 -1 9 C-0.835 8.071875 -0.67 7.14375 -0.5 6.1875 C0.07748388 3.04378647 0.07748388 3.04378647 0 0 Z " fill="#59595A" transform="translate(229,444)"/>
<path d="M0 0 C0.33 0.99 0.66 1.98 1 3 C-1.99480917 3.8723412 -4.63575911 4.10829766 -7.75 4.0625 C-8.54921875 4.05347656 -9.3484375 4.04445313 -10.171875 4.03515625 C-10.77515625 4.02355469 -11.3784375 4.01195312 -12 4 C-11.01 3.67 -10.02 3.34 -9 3 C-9 2.34 -9 1.68 -9 1 C-5.846632 0.29925156 -3.27275026 0 0 0 Z " fill="#BBBABD" transform="translate(294,425)"/>
<path d="M0 0 C0.66 0.33 1.32 0.66 2 1 C1.01 2.485 1.01 2.485 0 4 C0 4.66 0 5.32 0 6 C-2.31 6.33 -4.62 6.66 -7 7 C-7 6.34 -7 5.68 -7 5 C-5.46875 3.7109375 -5.46875 3.7109375 -3.5 2.375 C-2.8503125 1.92898438 -2.200625 1.48296875 -1.53125 1.0234375 C-1.0259375 0.68570312 -0.520625 0.34796875 0 0 Z M-10 7 C-9.01 7.33 -8.02 7.66 -7 8 C-8.98 8.66 -10.96 9.32 -13 10 C-12.01 9.01 -11.02 8.02 -10 7 Z " fill="#9E9FA0" transform="translate(352,399)"/>
<path d="M0 0 C0 0.99 0 1.98 0 3 C-2.08203125 4.859375 -2.08203125 4.859375 -4.8125 6.75 C-5.70582031 7.38421875 -6.59914063 8.0184375 -7.51953125 8.671875 C-8.33808594 9.11015625 -9.15664062 9.5484375 -10 10 C-10.99 9.67 -11.98 9.34 -13 9 C-8.71 6.03 -4.42 3.06 0 0 Z " fill="#CECDCE" transform="translate(129,74)"/>
<path d="M0 0 C1.95040379 1.95040379 2.85113961 3.43385548 4.0625 5.875 C4.40410156 6.55304688 4.74570312 7.23109375 5.09765625 7.9296875 C5.97466302 9.94186755 6.53437043 11.85906403 7 14 C6.401875 13.505 5.80375 13.01 5.1875 12.5 C3.02970006 10.71723582 3.02970006 10.71723582 0 11 C0 7.37 0 3.74 0 0 Z " fill="#C2C1C3" transform="translate(55,326)"/>
<path d="M0 0 C0.33 0 0.66 0 1 0 C1.33 4.95 1.66 9.9 2 15 C1.01 15 0.02 15 -1 15 C-1.02685412 12.68756208 -1.04632841 10.3750373 -1.0625 8.0625 C-1.07410156 6.77472656 -1.08570313 5.48695313 -1.09765625 4.16015625 C-1 1 -1 1 0 0 Z " fill="#CBBFB1" transform="translate(456,229)"/>
<path d="M0 0 C0 3.77910478 -0.99703962 4.46106101 -3.5 7.1875 C-4.47453125 8.26064453 -4.47453125 8.26064453 -5.46875 9.35546875 C-5.9740625 9.89816406 -6.479375 10.44085938 -7 11 C-7.33 10.01 -7.66 9.02 -8 8 C-6.85546875 6.2109375 -6.85546875 6.2109375 -5.1875 4.375 C-4.64480469 3.76398438 -4.10210937 3.15296875 -3.54296875 2.5234375 C-2 1 -2 1 0 0 Z " fill="#BBBDBF" transform="translate(387,364)"/>
<path d="M0 0 C1.17571451 3.67410785 1.07366746 7.16929183 1 11 C0.01 11.495 0.01 11.495 -1 12 C-1.33 11.34 -1.66 10.68 -2 10 C-2.66 10.99 -3.32 11.98 -4 13 C-3.50269348 8.02693484 -2.44697666 4.36200187 0 0 Z " fill="#9B9D9C" transform="translate(416,309)"/>
<path d="M0 0 C0.66 0 1.32 0 2 0 C2.226875 0.804375 2.45375 1.60875 2.6875 2.4375 C3.120625 3.283125 3.55375 4.12875 4 5 C6.54775306 5.89386164 6.54775306 5.89386164 9 6 C9 6.66 9 7.32 9 8 C6.36 8.33 3.72 8.66 1 9 C1.33 8.34 1.66 7.68 2 7 C1.39239518 4.6505947 0.72870472 2.31470912 0 0 Z " fill="#6D7072" transform="translate(326,430)"/>
<path d="M0 0 C0.66 0.33 1.32 0.66 2 1 C2.4140625 3.28515625 2.4140625 3.28515625 2.625 6.0625 C2.69976562 6.98160156 2.77453125 7.90070313 2.8515625 8.84765625 C2.90054687 9.55792969 2.94953125 10.26820313 3 11 C1.35 11.33 -0.3 11.66 -2 12 C-2.33 10.35 -2.66 8.7 -3 7 C-1.68 7.99 -0.36 8.98 1 10 C0.52491926 7.55672764 0.04141878 5.14910761 -0.625 2.75 C-0.810625 1.88375 -0.810625 1.88375 -1 1 C-0.67 0.67 -0.34 0.34 0 0 Z " fill="#606162" transform="translate(341,416)"/>
<path d="M0 0 C0.66 0.33 1.32 0.66 2 1 C2 2.32 2 3.64 2 5 C-1.21428571 8 -1.21428571 8 -4 8 C-4 7.34 -4 6.68 -4 6 C-4.66 5.67 -5.32 5.34 -6 5 C-4.02 3.35 -2.04 1.7 0 0 Z " fill="#A8A7AA" transform="translate(376,410)"/>
<path d="M0 0 C0.33 0.66 0.66 1.32 1 2 C1.66 2.33 2.32 2.66 3 3 C0.28817788 5.60334924 -0.89133813 5.99456691 -4.75 6.1875 C-5.8225 6.125625 -6.895 6.06375 -8 6 C-5.68055212 2.52082818 -3.73630036 1.70570234 0 0 Z " fill="#A2A2A5" transform="translate(362,421)"/>
<path d="M0 0 C2.11044382 3.16566573 2.75552077 5.51197415 3.625 9.1875 C3.88539063 10.27417969 4.14578125 11.36085937 4.4140625 12.48046875 C4.60742188 13.31191406 4.80078125 14.14335937 5 15 C4.01 14.67 3.02 14.34 2 14 C0.45073518 9.18912503 -0.25400178 5.08003559 0 0 Z " fill="#B3ADAA" transform="translate(446,180)"/>
<path d="M0 0 C1.32 0 2.64 0 4 0 C4 0.99 4 1.98 4 3 C0.86501708 4.85776765 -1.37471432 5.20140476 -5 5 C-5 4.34 -5 3.68 -5 3 C-3.35 2.67 -1.7 2.34 0 2 C0 1.34 0 0.68 0 0 Z " fill="#ACABAD" transform="translate(335,436)"/>
<path d="M0 0 C2.66666667 1.33333333 5.33333333 2.66666667 8 4 C7.67 5.32 7.34 6.64 7 8 C3.28631113 6.76210371 2.22645819 5.14775123 0 2 C0 1.34 0 0.68 0 0 Z " fill="#BCB5BB" transform="translate(85,383)"/>
<path d="M0 0 C0.66 0.33 1.32 0.66 2 1 C1.67 1.66 1.34 2.32 1 3 C2.32 2.67 3.64 2.34 5 2 C3.02 4.97 3.02 4.97 1 8 C0.01 7.67 -0.98 7.34 -2 7 C-1.42415568 4.61435923 -0.77772405 2.33317216 0 0 Z " fill="#A9A8A8" transform="translate(408,376)"/>
<path d="M0 0 C2.56269497 1.04109483 4.02610343 2.02610343 6 4 C6 4.99 6 5.98 6 7 C4.35 7.33 2.7 7.66 1 8 C0.814375 6.824375 0.814375 6.824375 0.625 5.625 C0.20882007 2.85942178 0.20882007 2.85942178 -2 1 C-1.34 0.67 -0.68 0.34 0 0 Z " fill="#A8A9AB" transform="translate(136,393)"/>
<path d="M0 0 C0 3 0 3 -1.390625 4.640625 C-2.00421875 5.17171875 -2.6178125 5.7028125 -3.25 6.25 C-4.15492188 7.06210937 -4.15492188 7.06210937 -5.078125 7.890625 C-7 9 -7 9 -9.234375 8.671875 C-9.81703125 8.45015625 -10.3996875 8.2284375 -11 8 C-6.25 4 -6.25 4 -4 4 C-2.62689293 2.70766393 -1.28965176 1.37562854 0 0 Z " fill="#9C9EA0" transform="translate(385,369)"/>
<path d="M0 0 C2 3 2 3 2 7 C2.969375 7.12375 3.93875 7.2475 4.9375 7.375 C6.4534375 7.684375 6.4534375 7.684375 8 8 C8.33 8.66 8.66 9.32 9 10 C6.36 9.67 3.72 9.34 1 9 C0.67 6.03 0.34 3.06 0 0 Z " fill="#6D6D70" transform="translate(208,444)"/>
<path d="M0 0 C0.556875 0.226875 1.11375 0.45375 1.6875 0.6875 C-1.60054981 3.59977269 -3.91135603 5.18451212 -8.3125 5.6875 C-7.3125 2.6875 -7.3125 2.6875 -5 0.9375 C-2.3125 -0.3125 -2.3125 -0.3125 0 0 Z " fill="#C3C5C6" transform="translate(342.3125,404.3125)"/>
<path d="M0 0 C0.66 0.33 1.32 0.66 2 1 C0.19587357 4.26460973 -0.83394693 5.88929795 -4 8 C-4 7.34 -4 6.68 -4 6 C-4.66 5.67 -5.32 5.34 -6 5 C-4.02 3.35 -2.04 1.7 0 0 Z " fill="#A6AAAA" transform="translate(361,389)"/>
<path d="M0 0 C0.66 0 1.32 0 2 0 C2 2.97 2 5.94 2 9 C0.68 9.33 -0.64 9.66 -2 10 C-1.54177532 6.53058454 -1.10868317 3.32604951 0 0 Z " fill="#CECCCB" transform="translate(440,321)"/>
<path d="M0 0 C3.42931954 3.7559214 4.56429083 8.23466745 6 13 C5.34 13 4.68 13 4 13 C-0.59225513 4.738041 -0.59225513 4.738041 0 0 Z " fill="#B2ABA7" transform="translate(440,165)"/>
<path d="M0 0 C0.66 0.33 1.32 0.66 2 1 C-0.64 4.3 -3.28 7.6 -6 11 C-6.66 10.67 -7.32 10.34 -8 10 C-7.04367001 8.70684939 -6.08486149 7.41553147 -5.125 6.125 C-4.59132813 5.40570313 -4.05765625 4.68640625 -3.5078125 3.9453125 C-2 2 -2 2 0 0 Z " fill="#CFCBCC" transform="translate(86,112)"/>
<path d="M0 0 C2.39073445 3.82517513 2.55966552 7.59665524 3 12 C1.68 11.01 0.36 10.02 -1 9 C-1.33 9.66 -1.66 10.32 -2 11 C-2 10.01 -2 9.02 -2 8 C-1.34 8 -0.68 8 0 8 C0 5.36 0 2.72 0 0 Z " fill="#CDCBCE" transform="translate(44,289)"/>
<path d="M0 0 C2.9375 0.75 2.9375 0.75 6 2 C6.8125 3.875 6.8125 3.875 7 6 C7.185625 6.7425 7.37125 7.485 7.5625 8.25 C7.7790625 9.11625 7.7790625 9.11625 8 10 C4.71211176 6.88983545 2.16264012 3.98381075 0 0 Z " fill="#E8DFE3" transform="translate(403,111)"/>
<path d="M0 0 C2.875 0.6875 2.875 0.6875 6 2 C7.375 4.625 7.375 4.625 8 7 C4.88801935 5.50163895 1.9465385 3.80066242 -1 2 C-0.67 1.34 -0.34 0.68 0 0 Z " fill="#EBE9E8" transform="translate(386,94)"/>
<path d="M0 0 C0.33 1.32 0.66 2.64 1 4 C-0.65 4.66 -2.3 5.32 -4 6 C-3.01 7.485 -3.01 7.485 -2 9 C-3.32 9 -4.64 9 -6 9 C-6 7.02 -6 5.04 -6 3 C-4.02 3 -2.04 3 0 3 C0 2.01 0 1.02 0 0 Z " fill="#656567" transform="translate(267,442)"/>
<path d="M0 0 C1.125 3.75 1.125 3.75 0 6 C0.66 6 1.32 6 2 6 C1.67 7.32 1.34 8.64 1 10 C-0.32 9.34 -1.64 8.68 -3 8 C-2.34 7.67 -1.68 7.34 -1 7 C-1.33 6.01 -1.66 5.02 -2 4 C-1.0625 1.8125 -1.0625 1.8125 0 0 Z " fill="#727376" transform="translate(161,428)"/>
<path d="M0 0 C3.96 0 7.92 0 12 0 C11.01 0.495 11.01 0.495 10 1 C9.67 1.99 9.34 2.98 9 4 C8.01 3.67 7.02 3.34 6 3 C6 2.34 6 1.68 6 1 C4.02 1 2.04 1 0 1 C0 0.67 0 0.34 0 0 Z " fill="#B1B3B4" transform="translate(267,429)"/>
<path d="M0 0 C0.99 0.66 1.98 1.32 3 2 C3 2.66 3 3.32 3 4 C1.73160474 4.50615298 0.46016898 5.00469099 -0.8125 5.5 C-1.87404297 5.91765625 -1.87404297 5.91765625 -2.95703125 6.34375 C-5 7 -5 7 -8 7 C-6.32382616 5.07240008 -5.40227852 4.09465377 -2.875 3.5 C-2.25625 3.335 -1.6375 3.17 -1 3 C-0.67 2.01 -0.34 1.02 0 0 Z " fill="#6E7071" transform="translate(350,424)"/>
<path d="M0 0 C0.99 0.66 1.98 1.32 3 2 C2.625 4.9375 2.625 4.9375 2 8 C1.01 8.495 1.01 8.495 0 9 C0 8.01 0 7.02 0 6 C-0.66 5.67 -1.32 5.34 -2 5 C-1.34 3.35 -0.68 1.7 0 0 Z " fill="#ABA7A7" transform="translate(431,341)"/>
<path d="M0 0 C-0.66 0 -1.32 0 -2 0 C-2 0.66 -2 1.32 -2 2 C-4.95664519 3.4783226 -7.74229737 3.06032783 -11 3 C-4.23255814 -1.51162791 -4.23255814 -1.51162791 0 0 Z " fill="#A7A9A8" transform="translate(326,414)"/>
<path d="M0 0 C-2.61514317 2.12038635 -5.19637616 4.13091744 -8 6 C-7.814375 5.38125 -7.62875 4.7625 -7.4375 4.125 C-6.76313824 1.95839822 -6.76313824 1.95839822 -8 0 C-5.13822943 -1.43088528 -3.06624227 -0.59991697 0 0 Z " fill="#AAABAD" transform="translate(339,409)"/>
<path d="M0 0 C2.56616632 3.84924948 2.55097676 6.4349304 3 11 C2.01 11 1.02 11 0 11 C0 7.37 0 3.74 0 0 Z " fill="#DEDDDA" transform="translate(452,271)"/>
<path d="M0 0 C0.33 0.66 0.66 1.32 1 2 C1.66 2 2.32 2 3 2 C2.34 3.32 1.68 4.64 1 6 C0.01 6 -0.98 6 -2 6 C-2.33 5.34 -2.66 4.68 -3 4 C-2.01 2.68 -1.02 1.36 0 0 Z " fill="#B3B0B2" transform="translate(405,381)"/>
<path d="M0 0 C0.99 0.33 1.98 0.66 3 1 C0.525 4.465 0.525 4.465 -2 8 C-2.33 7.01 -2.66 6.02 -3 5 C-1.5625 2.3125 -1.5625 2.3125 0 0 Z " fill="#A3999B" transform="translate(419,366)"/>
<path d="M0 0 C0.99 0 1.98 0 3 0 C3 1.65 3 3.3 3 5 C1.68 5.33 0.36 5.66 -1 6 C-1.042721 4.33388095 -1.04063832 2.66617115 -1 1 C-0.67 0.67 -0.34 0.34 0 0 Z " fill="#C0BFC1" transform="translate(428,347)"/>
<path d="M0 0 C0.66 0 1.32 0 2 0 C1.34 3.63 0.68 7.26 0 11 C-0.66 11 -1.32 11 -2 11 C-2 9.35 -2 7.7 -2 6 C-1.34 6 -0.68 6 0 6 C0 4.02 0 2.04 0 0 Z " fill="#C7C1C1" transform="translate(453,282)"/>
<path d="M0 0 C0.66 0.66 1.32 1.32 2 2 C0.02 4.31 -1.96 6.62 -4 9 C-4.99 8.34 -5.98 7.68 -7 7 C-6.38125 6.9175 -5.7625 6.835 -5.125 6.75 C-2.83911206 6.19416524 -2.83911206 6.19416524 -1.8125 4.0625 C-1.544375 3.381875 -1.27625 2.70125 -1 2 C-0.67 1.34 -0.34 0.68 0 0 Z " fill="#ECEBEE" transform="translate(70,137)"/>
<path d="M0 0 C-1 2 -1 2 -4.0625 3.125 C-5.031875 3.41375 -6.00125 3.7025 -7 4 C-6.625 2.0625 -6.625 2.0625 -6 0 C-3.50907189 -1.24546405 -2.58919267 -0.7767578 0 0 Z " fill="#E0E0E1" transform="translate(159,60)"/>
<path d="M0 0 C0.33 0.66 0.66 1.32 1 2 C1.66 2.33 2.32 2.66 3 3 C-0.3 3.33 -3.6 3.66 -7 4 C-6.34 3.67 -5.68 3.34 -5 3 C-5 2.34 -5 1.68 -5 1 C-3.35 0.67 -1.7 0.34 0 0 Z " fill="#E4E3E2" transform="translate(210,41)"/>
<path d="M0 0 C-2.55068845 2.35448165 -3.71017358 2.98327924 -7.25 3.1875 C-8.1575 3.125625 -9.065 3.06375 -10 3 C-10 2.34 -10 1.68 -10 1 C-6.59437148 0.22157062 -3.49234244 -0.09978121 0 0 Z " fill="#565758" transform="translate(290,446)"/>
<path d="M0 0 C0.99 0.33 1.98 0.66 3 1 C3.33333333 2.33333333 3.66666667 3.66666667 4 5 C4.99 5.33 5.98 5.66 7 6 C5.68 6.33 4.36 6.66 3 7 C2.731875 6.38125 2.46375 5.7625 2.1875 5.125 C1.04443152 2.7004767 1.04443152 2.7004767 -2 1 C-1.34 0.67 -0.68 0.34 0 0 Z " fill="#656567" transform="translate(310,426)"/>
<path d="M0 0 C-3.42346555 3.14958831 -6.44262737 3.56179109 -11 4 C-7.64191281 0.32209498 -4.88401581 -0.13200043 0 0 Z " fill="#D4D5D8" transform="translate(309,421)"/>
<path d="M0 0 C2.375 0.25 2.375 0.25 5 1 C6.3125 3.0625 6.3125 3.0625 7 5 C4 5 4 5 1.8125 3.0625 C0 1 0 1 0 0 Z " fill="#F0E6E5" transform="translate(360,74)"/>
<path d="M0 0 C1.98 0 3.96 0 6 0 C6 0.66 6 1.32 6 2 C3.69 2.33 1.38 2.66 -1 3 C-0.67 2.01 -0.34 1.02 0 0 Z " fill="#505051" transform="translate(234,449)"/>
<path d="M0 0 C1.7074998 1.28062485 3.37373596 2.61767557 5 4 C5 4.66 5 5.32 5 6 C3.125 5.6875 3.125 5.6875 1 5 C0.34 4.01 -0.32 3.02 -1 2 C-0.67 1.34 -0.34 0.68 0 0 Z " fill="#C4C5C8" transform="translate(131,388)"/>
<path d="M0 0 C0.66 0.66 1.32 1.32 2 2 C1.8125 4 1.8125 4 1 6 C0.01 6.66 -0.98 7.32 -2 8 C-1.67 6.68 -1.34 5.36 -1 4 C-1.66 3.67 -2.32 3.34 -3 3 C-2.01 2.01 -1.02 1.02 0 0 Z " fill="#A2A5A4" transform="translate(388,361)"/>
<path d="M0 0 C0.66 0.33 1.32 0.66 2 1 C1.40138258 3.35171131 0.73075648 5.6859378 0 8 C-0.99 8.495 -0.99 8.495 -2 9 C-1.125 2.25 -1.125 2.25 0 0 Z " fill="#BEAEB3" transform="translate(439,329)"/>
<path d="M0 0 C0.99 0 1.98 0 3 0 C2.34 3.3 1.68 6.6 1 10 C0.67 10 0.34 10 0 10 C0 6.7 0 3.4 0 0 Z " fill="#B7989F" transform="translate(450,293)"/>
<path d="M0 0 C1.80330533 3.60661066 2.46599103 6.08393425 3 10 C2.01 10 1.02 10 0 10 C0 6.7 0 3.4 0 0 Z " fill="#BFB6B0" transform="translate(452,202)"/>
<path d="M0 0 C2.64465038 3.1254959 3.84414715 6.08788267 5 10 C2 9 2 9 0.8125 6.6875 C0 4 0 4 0 0 Z " fill="#B7B8BB" transform="translate(62,340)"/>
<path d="M0 0 C1 2 1 2 0.4375 4 C0.2209375 4.99 0.2209375 4.99 0 6 C0.66 6.66 1.32 7.32 2 8 C1.01 8.66 0.02 9.32 -1 10 C-2.23076923 4.58461538 -2.23076923 4.58461538 -1.0625 1.625 C-0.5365625 0.820625 -0.5365625 0.820625 0 0 Z " fill="#929496" transform="translate(411,322)"/>
<path d="M0 0 C2 1 2 1 2.8515625 3.06640625 C3.10679688 3.89011719 3.36203125 4.71382813 3.625 5.5625 C3.88539062 6.38878906 4.14578125 7.21507812 4.4140625 8.06640625 C4.60742188 8.70449219 4.80078125 9.34257812 5 10 C3.046875 9.2578125 3.046875 9.2578125 1 8 C0.16113831 5.32209537 0.18233586 2.8262059 0 0 Z " fill="#9D9EA0" transform="translate(82,321)"/>
<path d="M0 0 C2.375 0.25 2.375 0.25 5 1 C6.3125 3.0625 6.3125 3.0625 7 5 C5.68 4.67 4.36 4.34 3 4 C3 3.34 3 2.68 3 2 C2.01 2 1.02 2 0 2 C0 1.34 0 0.68 0 0 Z " fill="#EFECEB" transform="translate(369,80)"/>
</svg>
